<?xml version="1.0" standalone="no"?>
<!DOCTYPE svg PUBLIC "-//W3C//DTD SVG 20010904//EN"
 "http://www.w3.org/TR/2001/REC-SVG-20010904/DTD/svg10.dtd">
<svg version="1.0" xmlns="http://www.w3.org/2000/svg"
 width="755.000000pt" height="755.000000pt" viewBox="0 0 755.000000 755.000000"
 preserveAspectRatio="xMidYMid meet">
<metadata>
Created by potrace 1.11, written by Peter Selinger 2001-2013
</metadata>
<g transform="translate(0.000000,755.000000) scale(0.100000,-0.100000)"
fill="#000000" stroke="none">
<path d="M3738 7528 c5 -5 16 -8 23 -6 8 3 3 7 -10 11 -17 4 -21 3 -13 -5z"/>
<path d="M3797 7507 c-15 -18 -26 -26 -24 -18 1 7 -4 16 -12 19 -9 3 -11 0 -6
-8 6 -9 4 -11 -6 -5 -18 12 -49 14 -43 3 7 -11 -3 -10 -28 3 -13 7 -18 7 -14
0 4 -6 -6 -9 -29 -7 -19 2 -38 0 -41 -6 -3 -5 -15 -1 -27 9 -19 16 -20 16 -8
1 12 -16 11 -18 -8 -18 -12 0 -20 4 -17 8 3 5 -2 9 -10 9 -10 0 -11 -4 -4 -11
16 -16 12 -30 -5 -16 -8 6 -27 13 -42 15 -15 1 -36 6 -45 10 -10 4 -18 3 -18
-2 0 -5 -9 -9 -20 -10 -12 -1 -18 3 -14 9 4 7 0 7 -13 -1 -13 -6 -23 -7 -30 0
-6 6 -10 5 -10 -5 0 -8 3 -13 7 -11 4 2 7 -2 7 -9 0 -8 -6 -12 -14 -9 -12 5
-17 18 -14 37 1 5 -5 4 -14 -4 -10 -9 -12 -16 -5 -25 12 -14 3 -26 -15 -18 -8
2 -11 11 -8 19 3 8 0 14 -6 14 -6 0 -10 -6 -9 -12 2 -7 -3 -12 -10 -10 -8 1
-11 -2 -7 -8 3 -5 1 -10 -5 -10 -6 0 -15 -10 -20 -22 -5 -13 -9 -17 -9 -10 -1
7 -5 10 -11 7 -6 -3 -7 1 -4 9 3 9 9 14 13 11 4 -2 8 3 8 12 0 13 -3 13 -16
-4 -9 -11 -23 -17 -31 -15 -11 4 -10 0 3 -12 13 -13 15 -22 7 -30 -5 -7 -6
-17 -2 -21 4 -5 1 -5 -6 -1 -9 5 -10 12 -3 20 7 8 4 15 -10 24 -16 10 -21 10
-26 -5 -6 -15 -7 -15 -14 3 -6 15 -8 13 -9 -11 -1 -26 -3 -27 -9 -10 -5 11 -7
22 -5 25 1 3 -7 7 -18 7 -18 2 -18 1 -4 -10 12 -9 13 -16 5 -27 -9 -13 -10
-12 -5 3 8 25 -20 22 -38 -5 -9 -13 -16 -17 -16 -9 0 11 -3 11 -15 1 -8 -7
-15 -8 -15 -2 0 5 7 15 15 22 11 9 15 9 15 1 0 -7 5 -9 11 -5 8 4 7 9 -2 15
-7 4 -18 4 -25 -1 -6 -6 -15 -6 -19 -2 -5 4 -5 1 -1 -5 5 -9 1 -13 -11 -13
-15 0 -16 -2 -3 -10 13 -8 13 -11 1 -22 -10 -10 -12 -10 -7 0 4 6 4 12 -1 13
-4 0 -16 2 -26 4 -9 2 -15 -1 -11 -6 7 -11 -35 -28 -59 -23 -10 1 -15 -1 -12
-7 4 -5 11 -7 16 -4 5 4 9 1 9 -4 0 -6 -5 -11 -11 -11 -5 0 -7 -5 -4 -10 5 -8
12 -7 23 2 15 12 16 11 3 -5 -10 -12 -17 -14 -26 -7 -9 8 -15 7 -19 -2 -3 -7
-4 -2 -1 12 3 14 2 19 -1 13 -3 -7 -10 -13 -15 -13 -6 0 -7 5 -3 12 4 7 3 8
-5 4 -9 -6 -9 -11 -1 -21 9 -10 6 -16 -9 -25 -12 -6 -21 -8 -21 -4 0 3 -6 2
-13 -4 -8 -7 -18 -7 -27 -2 -24 16 -35 11 -14 -5 18 -14 17 -14 -11 -4 -24 8
-28 8 -17 -2 15 -16 16 -29 1 -29 -5 0 -7 5 -3 11 4 7 1 10 -7 7 -8 -3 -13
-10 -12 -14 1 -5 -16 -9 -37 -8 -30 1 -37 -2 -32 -14 4 -12 1 -14 -12 -9 -14
5 -17 3 -12 -8 3 -8 1 -15 -5 -15 -6 0 -7 -6 -3 -12 4 -7 4 -10 -1 -6 -4 4
-14 3 -20 -2 -7 -6 -30 -11 -51 -12 -21 -1 -33 -3 -26 -6 7 -2 9 -8 6 -14 -4
-6 2 -5 15 1 16 9 20 9 15 -2 -6 -16 -36 -18 -46 -3 -5 7 -8 4 -8 -7 0 -13 -6
-17 -22 -15 -14 2 -22 -2 -20 -9 1 -7 3 -18 5 -24 1 -6 -5 -13 -14 -14 -39 -7
-57 -17 -62 -34 -2 -10 -11 -18 -20 -18 -9 0 -13 6 -10 16 4 14 4 14 -6 1 -14
-20 -14 -43 1 -34 7 4 8 3 4 -5 -4 -6 -11 -9 -16 -6 -5 3 -11 1 -15 -4 -3 -5
-14 -8 -24 -6 -12 2 -18 -2 -17 -13 1 -11 -7 -17 -21 -17 -29 -1 -38 -11 -24
-29 10 -12 7 -14 -18 -10 -19 3 -31 1 -31 -6 0 -6 5 -8 12 -4 7 4 8 3 4 -5 -4
-6 -11 -9 -16 -6 -5 3 -13 -2 -18 -11 -6 -10 -12 -12 -16 -6 -3 5 1 13 10 16
17 6 10 26 -9 26 -8 0 -7 -3 2 -9 11 -7 8 -11 -10 -17 -13 -4 -27 -8 -31 -9
-3 0 -10 -3 -13 -7 -4 -4 5 -5 19 -2 27 4 27 4 10 -21 -15 -23 -43 -38 -29
-16 3 5 0 13 -6 17 -8 4 -9 3 -5 -5 4 -6 0 -14 -9 -17 -14 -6 -14 -8 2 -20 13
-9 14 -13 4 -14 -7 0 -11 -6 -8 -14 4 -10 1 -13 -8 -10 -8 3 -11 13 -8 21 4
11 2 14 -5 9 -17 -10 -16 -49 1 -40 7 4 9 3 4 -2 -5 -5 -13 -10 -18 -10 -5 -1
-14 -2 -20 -3 -5 0 -7 -7 -3 -13 6 -10 4 -10 -7 0 -16 15 -29 16 -29 1 0 -5 5
-7 10 -4 6 3 10 1 10 -4 0 -6 -7 -11 -16 -11 -14 0 -15 -2 -3 -17 10 -11 10
-14 2 -9 -8 4 -13 1 -13 -9 0 -8 -7 -18 -15 -21 -8 -4 -12 -11 -8 -18 4 -6 -1
-5 -10 3 -15 12 -17 12 -11 -2 4 -12 0 -15 -18 -11 l-23 5 23 -11 c26 -11 21
-33 -6 -23 -15 6 -16 5 -2 -12 14 -17 14 -18 -10 -5 -22 12 -23 11 -13 -1 10
-12 8 -15 -8 -16 -11 -1 -17 2 -14 8 4 5 2 9 -4 9 -5 0 -9 -8 -9 -17 0 -10 -3
-27 -7 -37 -7 -15 -5 -17 5 -11 8 5 3 -7 -10 -26 -14 -19 -24 -35 -23 -36 7
-8 -11 -32 -19 -27 -6 4 -5 10 3 16 12 8 11 9 -1 6 -8 -3 -14 -16 -15 -31 0
-27 -10 -36 -23 -21 -4 4 -1 4 7 -1 10 -6 12 -4 7 4 -6 8 -12 9 -20 2 -7 -6
-16 -7 -20 -3 -4 4 -7 3 -6 -3 5 -23 -1 -36 -12 -29 -10 6 -10 5 -1 -8 7 -8 9
-19 5 -23 -4 -5 -1 -5 6 -1 7 4 10 12 7 17 -4 5 -1 9 5 9 6 0 9 4 5 9 -3 5 -1
12 5 16 18 11 11 -22 -10 -46 -15 -19 -21 -21 -28 -11 -7 11 -10 10 -15 -3 -4
-9 -3 -13 3 -10 16 10 12 -11 -5 -25 -12 -10 -13 -15 -3 -28 10 -12 11 -16 0
-19 -6 -3 -9 -10 -6 -15 4 -7 2 -8 -4 -4 -6 3 -15 0 -19 -9 -5 -8 -20 -16 -33
-18 -17 -3 -24 -10 -22 -22 2 -9 -1 -15 -6 -11 -5 3 -9 -1 -9 -9 0 -8 4 -12 9
-9 4 3 8 -4 8 -16 0 -14 4 -19 13 -15 6 4 1 -3 -13 -14 -14 -11 -29 -21 -35
-21 -5 0 -2 -5 8 -11 12 -7 15 -15 8 -27 -5 -9 -9 -21 -9 -25 0 -5 -4 -12 -8
-15 -4 -4 -4 -1 0 6 4 7 2 12 -5 12 -7 0 -5 9 7 23 19 22 19 22 -2 4 -11 -9
-25 -14 -29 -10 -5 5 -5 1 1 -7 16 -23 25 -52 14 -45 -6 3 -10 1 -10 -6 0 -7
-8 -21 -17 -31 -18 -20 -28 -143 -11 -132 5 3 7 13 6 21 -2 9 5 17 15 18 15 3
15 0 -4 -26 -16 -23 -24 -27 -34 -19 -10 9 -13 7 -10 -7 1 -10 -5 -27 -14 -38
-15 -18 -15 -19 1 -7 11 9 18 10 23 2 3 -6 12 -7 18 -3 8 5 8 2 0 -9 -7 -8
-10 -17 -7 -20 2 -3 -2 -8 -11 -12 -13 -4 -14 -2 -5 14 7 14 7 20 0 20 -9 0
-15 -22 -11 -44 1 -5 -1 -16 -5 -25 -12 -28 -14 -51 -5 -51 6 0 8 9 6 20 -3
13 0 18 7 14 6 -4 8 -3 5 3 -4 6 0 19 9 29 14 18 15 18 4 -3 -6 -13 -8 -23 -4
-23 3 0 1 -6 -5 -14 -9 -11 -9 -15 1 -19 11 -4 10 -6 0 -6 -7 -1 -11 -5 -7
-10 3 -5 0 -15 -7 -23 -18 -18 -21 -38 -6 -38 6 0 3 -7 -8 -15 -12 -10 -14
-14 -4 -12 8 2 11 2 7 -1 -4 -2 -2 -11 5 -20 10 -11 5 -10 -17 4 -20 12 -26
14 -18 4 16 -21 17 -32 3 -40 -8 -5 -7 -10 3 -18 12 -10 14 -8 12 13 -2 14 1
23 5 20 5 -3 6 -13 3 -22 -5 -12 -3 -14 8 -8 12 8 12 6 0 -8 -7 -9 -16 -15
-20 -13 -4 3 -11 -11 -17 -29 -8 -25 -8 -32 0 -27 17 10 37 11 30 1 -3 -5 -10
-7 -15 -4 -5 4 -9 0 -9 -9 0 -8 -6 -17 -12 -19 -10 -4 -10 -6 0 -6 9 -1 10 -6
3 -20 -8 -14 -7 -22 3 -30 11 -10 13 -5 11 24 -1 20 1 38 5 40 3 2 6 -14 6
-36 -1 -27 -7 -44 -18 -50 -9 -5 -15 -17 -14 -27 2 -9 -2 -20 -8 -24 -6 -4 -1
-6 11 -5 12 0 19 6 15 12 -9 14 -12 38 -4 30 4 -4 8 -11 8 -16 1 -5 2 -10 4
-11 6 -9 5 -66 -2 -62 -5 3 -6 9 -3 14 3 5 0 12 -6 16 -7 4 -9 3 -5 -4 3 -5 0
-13 -6 -15 -10 -4 -10 -6 0 -6 6 -1 12 -6 12 -12 0 -5 -4 -8 -9 -5 -8 5 -8
-22 -1 -31 7 -8 5 -30 -3 -40 -6 -9 -6 -13 2 -13 11 0 14 9 14 43 0 9 4 17 8
17 9 0 8 -16 -3 -60 -2 -10 4 -14 16 -13 13 1 15 -2 7 -10 -7 -7 -15 -6 -26 3
-8 7 -18 10 -22 6 -3 -3 -1 -6 5 -6 7 0 12 -11 12 -25 0 -14 4 -25 10 -25 5 0
6 8 3 18 -6 16 -6 16 10 0 19 -18 23 -33 7 -23 -5 3 -10 2 -10 -3 0 -6 -10 -8
-22 -5 -15 3 -11 -2 12 -15 28 -16 34 -25 32 -47 -2 -19 1 -25 10 -20 7 4 2
-3 -12 -15 -21 -17 -22 -20 -6 -18 10 2 21 -4 23 -12 4 -13 3 -13 -6 0 -9 12
-11 11 -11 -7 0 -12 6 -23 13 -26 9 -3 9 -8 -2 -18 -12 -12 -13 -12 -6 0 6 10
4 12 -5 6 -8 -5 -11 -4 -6 3 3 6 2 13 -3 16 -10 7 -9 -20 2 -30 4 -4 1 -14 -6
-22 -9 -13 -9 -14 1 -8 8 5 12 1 12 -13 0 -10 -6 -22 -12 -25 -7 -3 -2 -3 11
0 15 4 21 2 17 -4 -3 -6 -3 -12 1 -15 5 -2 2 -2 -5 -1 -6 2 -12 -4 -12 -12 0
-8 4 -13 8 -10 4 2 9 -4 9 -15 1 -10 -3 -19 -8 -19 -6 0 -7 5 -4 10 10 16 -1
11 -16 -7 -8 -9 -9 -14 -4 -11 6 4 17 3 25 -3 13 -7 13 -9 1 -9 -11 0 -9 -4 5
-16 18 -14 18 -15 -6 -10 -14 3 -19 3 -12 0 6 -3 10 -10 6 -15 -3 -5 -2 -9 3
-8 4 1 17 1 28 0 16 -2 14 -4 -10 -15 -29 -12 -29 -13 -7 -20 12 -4 22 -12 22
-17 0 -6 5 -7 11 -3 8 4 8 1 1 -13 -7 -12 -7 -25 -1 -36 6 -9 6 -17 2 -17 -4
0 -1 -5 7 -10 10 -6 11 -10 3 -10 -7 0 -13 -4 -13 -10 0 -5 8 -6 17 -3 15 6
16 5 3 -9 -14 -15 -16 -15 -24 3 -10 20 -26 26 -26 9 0 -5 4 -10 8 -10 12 0
36 -51 35 -72 0 -10 4 -15 8 -12 5 3 9 0 9 -7 0 -10 3 -10 12 -1 7 7 15 12 19
12 8 0 3 -39 -5 -48 -3 -2 -1 -13 4 -23 7 -12 6 -19 -3 -22 -9 -4 -8 -6 2 -6
11 -1 11 -4 0 -18 -11 -15 -11 -16 1 -5 16 14 22 74 6 65 -5 -3 -6 -1 -2 5 12
20 28 13 21 -9 -6 -16 -4 -20 6 -13 12 6 12 5 0 -9 -12 -16 -8 -22 12 -18 5 1
6 -3 2 -9 -3 -6 -11 -8 -16 -5 -11 7 -7 -24 5 -44 6 -10 5 -12 -2 -7 -17 10
-15 -6 5 -33 9 -14 11 -21 5 -17 -7 4 -12 3 -12 -3 0 -5 9 -13 20 -16 11 -3
20 -11 20 -18 0 -8 -3 -8 -12 1 -15 15 -28 15 -28 1 0 -5 4 -8 9 -5 5 3 11 -1
15 -9 3 -8 0 -15 -6 -15 -6 0 -8 -3 -5 -7 4 -3 17 2 29 13 15 12 18 13 10 3
-7 -9 -10 -25 -6 -35 5 -16 4 -17 -5 -4 -9 12 -10 9 -7 -14 3 -16 7 -31 10
-34 3 -2 1 -13 -4 -23 -7 -11 -7 -20 0 -24 5 -3 7 -13 4 -23 -5 -16 -5 -16 6
1 6 9 16 17 21 17 6 0 7 -6 2 -12 -11 -19 -13 -39 -2 -32 5 3 9 0 9 -6 0 -6 5
-8 10 -5 5 3 10 1 10 -6 0 -9 3 -9 14 0 10 8 16 9 21 1 4 -6 3 -10 -2 -9 -20
4 -24 -2 -12 -18 12 -15 12 -16 -1 -8 -12 6 -13 6 -2 -6 11 -12 14 -12 22 1 5
8 10 10 10 5 0 -6 -6 -17 -12 -24 -11 -10 -9 -11 7 -5 16 6 18 4 8 -6 -9 -10
-7 -17 13 -32 13 -11 22 -23 19 -28 -3 -5 7 -18 22 -31 26 -20 26 -21 5 -16
-13 3 -20 1 -16 -5 4 -5 21 -8 38 -5 17 3 25 3 19 0 -7 -2 -13 -11 -13 -19 0
-9 -4 -12 -10 -9 -5 3 -10 1 -10 -5 0 -7 8 -9 20 -5 19 6 26 -7 21 -37 0 -5 6
-8 15 -8 9 0 12 -5 8 -12 -5 -7 -3 -8 5 -4 9 6 9 12 -3 25 -9 10 -16 22 -16
27 0 5 5 1 11 -9 6 -9 15 -14 21 -11 7 4 8 2 4 -4 -4 -7 -2 -12 4 -12 7 0 5
-7 -4 -16 -19 -19 -20 -25 -3 -21 6 1 11 -4 9 -11 -1 -8 2 -11 8 -7 8 5 7 11
-1 21 -6 8 -9 14 -6 14 2 0 17 -16 32 -36 24 -31 25 -34 7 -25 -11 6 -27 11
-34 10 -7 0 -3 -4 10 -10 14 -5 20 -13 16 -21 -5 -7 -2 -9 8 -5 10 3 24 -3 35
-16 14 -17 15 -19 1 -9 -13 11 -21 11 -35 2 -17 -11 -17 -11 0 -6 13 4 22 -3
33 -27 9 -18 13 -22 11 -10 -3 14 0 20 7 17 6 -2 13 -12 14 -22 4 -37 9 -53
15 -52 4 0 10 0 13 0 4 0 1 6 -5 14 -9 10 -8 15 2 19 10 4 13 -3 12 -24 -1
-15 2 -26 8 -22 5 3 6 -4 3 -18 l-7 -24 16 25 c15 23 15 23 10 3 -4 -14 -2
-23 4 -23 6 0 11 -7 11 -17 0 -9 3 -14 6 -10 4 3 13 -1 21 -9 8 -8 19 -11 25
-8 7 4 8 2 4 -4 -4 -7 -1 -12 6 -12 11 0 11 -2 0 -9 -11 -7 -11 -10 0 -22 7
-8 15 -23 16 -34 2 -11 6 -22 9 -25 3 -3 3 5 0 17 -3 13 0 26 5 30 7 3 8 1 4
-5 -4 -7 0 -12 11 -13 10 0 13 -3 6 -6 -7 -2 -13 -9 -13 -14 0 -6 6 -7 13 -4
6 4 4 0 -5 -8 -10 -8 -15 -17 -11 -20 10 -11 25 -8 18 3 -3 6 1 10 10 10 12 0
14 -4 5 -19 -5 -11 -10 -26 -9 -33 0 -7 4 -4 8 6 4 11 16 20 26 22 12 2 14 -1
7 -8 -6 -6 -8 -18 -5 -27 4 -14 3 -14 -6 -1 -8 11 -11 11 -11 2 0 -7 7 -15 16
-19 9 -3 14 -13 11 -24 -5 -20 19 -35 26 -16 3 7 4 -6 3 -28 0 -22 -7 -45 -14
-50 -11 -9 -9 -14 7 -29 19 -17 19 -17 17 8 -2 14 1 26 6 26 5 0 9 -15 8 -32
-3 -54 -1 -70 10 -63 6 3 10 1 10 -4 0 -6 -5 -11 -12 -11 -6 0 -8 -3 -5 -6 3
-4 1 -16 -5 -28 -7 -11 -13 -27 -14 -35 -2 -8 -9 -18 -16 -22 -9 -6 -10 -9 -1
-9 11 0 35 32 30 41 -1 2 0 3 2 1 3 -1 5 -13 6 -26 0 -14 -3 -22 -7 -20 -3 2
-10 -1 -14 -7 -4 -8 -3 -9 4 -5 7 4 12 2 12 -4 0 -6 4 -9 9 -6 5 3 11 0 14 -8
6 -16 -27 -11 -53 8 -8 6 -12 6 -8 2 4 -5 2 -16 -5 -25 -10 -14 -10 -14 4 -4
13 11 18 9 27 -10 6 -12 12 -33 14 -47 2 -14 7 -28 12 -31 11 -8 -2 -31 -14
-24 -5 3 -7 14 -5 23 2 10 -5 24 -16 30 -23 15 -25 6 -4 -15 12 -12 13 -18 4
-29 -10 -13 -6 -18 14 -15 4 0 7 -4 7 -10 0 -5 4 -8 9 -5 5 3 11 0 14 -8 6
-16 -27 -11 -53 8 -8 6 -12 6 -8 2 4 -5 2 -16 -5 -25 -10 -14 -10 -14 4 -4 13
11 18 9 27 -10 6 -12 12 -33 14 -47 2 -14 7 -28 12 -32 6 -4 5 -12 -1 -20 -17
-20 -16 -29 4 -43 10 -7 15 -17 10 -21 -4 -4 -7 -2 -7 4 0 7 -4 12 -8 12 -5 0
-9 -7 -9 -15 0 -8 4 -15 9 -15 4 0 8 -5 8 -11 0 -5 -4 -8 -9 -5 -5 4 -11 0
-14 -6 -2 -7 -3 21 -2 63 1 64 -2 78 -17 88 -22 14 -24 5 -3 -15 13 -13 13
-18 -1 -40 -15 -21 -15 -24 -1 -18 19 7 17 -17 -3 -41 -7 -9 -9 -15 -3 -13 6
2 11 0 12 -4 3 -22 0 -28 -11 -22 -6 4 -8 3 -5 -3 7 -12 46 -11 67 2 15 9 -16
-33 -35 -47 -6 -5 -6 -8 2 -8 6 0 15 4 18 10 8 13 25 13 25 -1 0 -5 -5 -7 -11
-3 -7 4 -10 1 -7 -7 3 -8 -2 -20 -11 -28 -9 -7 -4 -6 11 3 19 11 29 13 34 4 4
-7 3 -8 -4 -4 -11 6 -16 -6 -13 -26 0 -5 -4 -8 -11 -8 -6 0 -3 -7 8 -15 13
-10 15 -14 5 -15 -8 0 -12 -3 -8 -6 3 -3 11 -3 17 1 8 5 8 11 -1 21 -8 10 -8
14 0 14 6 0 11 -5 11 -11 0 -5 6 -7 13 -3 9 6 9 4 -1 -7 -16 -17 -16 -32 1
-23 8 6 8 3 -2 -9 -11 -14 -10 -22 8 -54 l22 -38 -29 33 c-26 32 -28 32 -29
10 -2 -15 1 -18 6 -10 6 10 12 4 21 -18 7 -17 17 -33 23 -37 6 -4 7 -1 2 7 -5
9 -4 11 4 6 6 -4 10 -15 9 -24 -2 -11 5 -18 20 -20 12 -2 22 -8 22 -13 0 -6
-6 -7 -12 -3 -7 4 -6 -1 3 -10 9 -10 24 -18 33 -20 10 -1 22 -9 27 -17 7 -11
9 -11 9 -1 0 7 4 11 9 7 5 -3 12 -1 16 4 3 6 -4 8 -16 6 -21 -4 -21 -4 -4 15
19 21 27 25 23 13 -2 -5 5 -19 15 -33 l18 -25 -6 30 c-4 17 -3 26 2 20 4 -5
15 -10 23 -10 8 0 19 5 23 10 5 6 7 4 4 -5 -2 -8 -11 -14 -21 -12 -9 2 -16 -2
-16 -8 0 -5 6 -9 13 -7 6 1 11 -4 9 -11 -1 -8 2 -11 8 -7 6 3 7 11 4 17 -5 8
-1 9 10 5 14 -6 17 -3 12 10 -4 10 -4 14 0 10 4 -4 14 -1 22 6 13 9 14 9 8 0
-4 -8 -2 -13 4 -13 6 0 9 -4 6 -8 -3 -5 1 -9 9 -9 18 0 20 14 3 20 -7 2 -10 8
-6 12 4 4 15 2 23 -5 9 -7 15 -9 14 -4 -3 14 12 44 23 44 5 0 6 -6 2 -12 -4
-7 -3 -9 1 -5 17 15 14 39 -3 33 -13 -5 -12 -2 2 9 11 8 16 15 12 15 -4 0 2
16 14 35 19 30 19 34 4 28 -13 -5 -15 -3 -9 7 6 10 4 12 -8 7 -10 -4 -17 -2
-17 4 0 6 8 9 18 7 10 -3 24 2 32 10 13 14 12 15 -1 10 -9 -3 -22 -2 -30 3
-10 6 -11 9 -1 10 33 4 37 6 35 15 -1 5 7 10 17 10 10 0 16 -4 13 -9 -3 -5 0
-7 8 -5 8 3 23 -2 34 -11 12 -9 15 -10 8 -1 -17 19 -16 30 3 30 9 0 12 -5 8
-12 -5 -8 -2 -9 9 -5 9 3 19 2 22 -4 4 -5 11 -6 17 -3 7 4 8 2 4 -5 -4 -6 0
-14 9 -17 9 -4 12 -10 7 -13 -18 -11 -19 -61 -1 -61 8 0 8 4 1 13 -7 9 -8 17
-1 27 9 13 10 13 6 0 -2 -8 3 -24 12 -34 10 -12 12 -20 5 -23 -6 -2 -20 -10
-30 -18 -16 -13 -17 -14 -1 -9 10 4 17 1 17 -6 0 -6 5 -8 11 -4 8 4 8 0 0 -15
-7 -11 -17 -21 -23 -21 -6 0 -9 -3 -6 -6 4 -3 15 -1 26 5 18 10 19 9 9 -13 -6
-13 -16 -23 -22 -21 -5 1 -7 0 -2 -2 4 -3 7 -12 7 -21 1 -12 4 -11 14 7 8 14
16 19 20 13 3 -6 2 -12 -3 -14 -17 -6 -17 -43 -1 -40 8 2 12 0 8 -3 -4 -4 -3
-16 3 -27 8 -15 6 -24 -8 -40 -17 -19 -17 -20 4 -38 25 -20 19 -37 -6 -17 -14
10 -14 10 -3 -5 10 -13 10 -17 0 -21 -10 -4 -10 -6 0 -6 6 -1 12 -6 12 -12 0
-5 -6 -7 -12 -3 -7 4 -5 -2 5 -13 19 -22 23 -38 5 -27 -6 4 -8 3 -4 -4 3 -5 0
-13 -6 -15 -10 -4 -10 -6 0 -6 6 -1 12 -6 12 -12 0 -5 -6 -7 -12 -3 -7 4 -5
-2 6 -14 10 -12 23 -19 29 -15 6 4 7 1 3 -6 -5 -7 -15 -10 -23 -7 -8 3 -11 1
-8 -4 3 -6 3 -16 -2 -22 -13 -22 -13 -42 0 -29 6 6 18 11 26 11 14 0 14 -1 1
-10 -8 -5 -12 -10 -8 -10 4 0 0 -16 -8 -35 -13 -32 -13 -34 3 -28 15 6 16 4 6
-9 -7 -8 -10 -18 -6 -21 3 -4 12 1 20 11 10 13 10 9 -1 -15 -12 -23 -13 -32
-4 -35 7 -3 5 -7 -6 -11 -10 -4 -15 -3 -11 3 3 6 -1 7 -10 3 -9 -3 -12 -9 -7
-12 8 -5 10 -56 3 -56 -2 0 -4 -8 -6 -19 -3 -14 -1 -16 8 -7 6 6 18 11 26 10
11 0 12 -2 3 -6 -6 -2 -10 -9 -7 -13 3 -5 0 -12 -6 -16 -8 -5 -9 -3 -4 6 5 9
4 11 -4 6 -6 -4 -9 -11 -6 -16 3 -4 -1 -11 -7 -13 -10 -4 -10 -6 0 -6 6 -1 12
-6 12 -12 0 -5 -6 -7 -12 -3 -7 4 -5 -2 5 -13 19 -22 23 -38 5 -27 -6 4 -8 3
-4 -4 3 -5 0 -13 -6 -15 -10 -4 -10 -6 0 -6 6 -1 12 -6 12 -12 0 -5 -6 -7 -12
-3 -7 4 -5 -2 5 -13 19 -22 23 -38 5 -27 -6 4 -8 3 -4 -4 3 -5 0 -13 -6 -15
-10 -4 -10 -6 0 -6 6 -1 12 -6 12 -12 0 -5 -6 -7 -12 -3 -7 4 -5 -2 5 -13 19
-22 23 -38 5 -27 -6 4 -8 3 -4 -4 3 -5 0 -13 -6 -15 -10 -4 -10 -6 0 -6 6 -1
12 -6 12 -12 0 -5 -6 -7 -12 -3 -7 4 -5 -2 6 -14 10 -12 23 -19 29 -15 6 4 7
1 3 -6 -5 -7 -15 -10 -23 -7 -8 3 -11 1 -8 -4 3 -6 3 -16 -2 -23 -13 -21 -13
-41 0 -28 6 6 18 11 27 11 13 0 13 -1 0 -10 -8 -5 -11 -10 -7 -10 4 0 2 -10
-5 -22 -18 -34 -18 -47 0 -40 15 5 15 4 3 -11 -14 -18 -2 -24 15 -7 7 7 11 6
11 -4 0 -8 -4 -13 -9 -10 -4 3 -8 -4 -8 -16 0 -12 -4 -19 -9 -15 -5 3 -12 2
-15 -3 -2 -4 5 -9 16 -9 12 -1 26 -7 31 -12 14 -14 18 -43 6 -35 -5 3 -7 10
-4 15 3 5 -1 6 -10 2 -13 -5 -14 -7 -3 -14 11 -8 11 -10 -1 -18 -9 -6 -10 -11
-2 -15 6 -4 11 -3 11 3 0 5 9 9 19 8 11 0 17 -5 15 -9 -3 -5 -9 -6 -14 -3 -4
3 -11 -2 -14 -11 -3 -9 -11 -12 -18 -8 -9 5 -9 3 1 -9 7 -9 10 -17 5 -17 -4 0
-3 -5 4 -12 17 -17 16 -44 -1 -29 -10 8 -14 7 -14 -4 0 -8 4 -12 9 -9 7 5 12
-10 9 -29 -1 -5 4 -7 11 -4 7 2 21 -2 30 -11 14 -12 15 -19 6 -36 -10 -19 -9
-19 4 -8 9 7 29 15 45 18 20 3 24 2 13 -5 -8 -5 -17 -8 -21 -5 -4 2 -13 -4
-20 -14 -7 -9 -9 -14 -5 -10 5 4 15 3 23 -4 11 -9 13 -8 11 2 -2 8 6 16 16 18
14 3 17 0 13 -11 -4 -11 -1 -14 8 -11 8 3 13 11 12 16 -1 6 4 13 12 16 9 3 11
0 6 -8 -4 -7 4 -5 18 5 20 13 30 14 46 6 14 -8 22 -8 27 1 4 6 3 9 -2 6 -5 -3
-15 0 -22 8 -10 12 -10 14 2 14 8 0 22 10 31 23 8 12 18 21 20 20 7 -4 5 11
-2 17 -4 3 -3 -1 2 -9 5 -10 4 -12 -4 -7 -12 8 -8 19 18 49 17 20 23 67 8 67
-5 0 -7 -7 -4 -15 4 -8 2 -17 -4 -20 -5 -4 -7 -10 -4 -15 3 -4 -2 -11 -10 -14
-13 -5 -14 -2 -3 17 7 12 12 34 13 49 0 15 5 31 9 35 5 4 7 3 3 -2 -3 -6 4
-17 16 -24 18 -11 20 -11 10 0 -16 17 -17 43 -1 33 8 -5 9 -2 4 12 -4 10 -9
24 -10 29 -1 6 -6 17 -11 25 -8 13 -7 13 8 1 9 -7 15 -17 12 -21 -3 -4 2 -11
10 -14 13 -5 14 -2 5 15 -13 23 -10 67 5 88 7 11 7 13 -1 8 -7 -4 -15 0 -18 9
-4 11 -2 15 7 11 8 -3 13 3 14 17 0 11 -1 15 -4 9 -8 -22 -21 -14 -15 9 3 13
1 19 -5 15 -6 -4 -9 5 -8 21 1 15 -3 34 -9 42 -9 13 -8 13 4 3 13 -10 16 -9
16 7 0 13 -6 17 -23 14 -12 -2 -24 0 -28 6 -4 6 1 7 11 3 12 -4 15 -3 10 5 -4
8 -2 10 7 6 8 -3 18 0 23 7 4 7 3 10 -4 5 -6 -4 -11 1 -11 11 0 24 -5 45 -14
61 -5 7 -4 12 2 12 6 0 11 7 11 15 0 8 -6 12 -14 9 -18 -7 -30 12 -15 22 8 5
9 3 4 -6 -6 -10 -4 -12 9 -7 10 4 23 7 29 7 6 0 2 6 -8 14 -11 8 -26 12 -35 9
-8 -3 0 5 18 17 17 12 32 24 32 27 0 2 -3 2 -7 0 -5 -3 -14 2 -22 10 -11 12
-10 14 4 11 11 -2 19 4 20 15 2 9 -1 17 -6 17 -5 0 -9 -4 -9 -10 0 -13 -27
-13 -35 -1 -3 5 0 13 6 17 8 5 9 3 4 -6 -5 -8 -3 -11 6 -8 8 3 16 13 17 22 3
14 -1 17 -20 11 -18 -5 -20 -4 -8 4 8 6 24 11 35 12 l20 0 -20 9 c-11 5 -15 9
-8 9 8 1 10 8 6 19 -6 15 -5 16 12 2 10 -8 16 -10 12 -3 -4 6 -1 14 5 17 7 3
4 4 -6 3 -10 -1 -21 4 -24 12 -3 9 0 11 8 6 9 -6 11 -4 5 5 -4 7 -9 25 -10 40
-2 23 1 27 19 22 21 -4 21 -4 1 12 -16 13 -18 17 -6 25 11 7 10 10 -5 15 -11
3 -8 4 8 2 18 -2 25 1 21 11 -3 7 -10 10 -17 6 -8 -4 -8 -2 1 7 6 7 9 20 7 29
-3 9 2 5 11 -9 16 -24 16 -24 12 -3 -3 13 0 26 5 30 7 3 8 1 4 -5 -11 -19 5
-14 21 6 8 9 12 11 8 5 -3 -7 -1 -13 4 -13 6 0 11 -5 11 -11 0 -5 -5 -7 -12
-3 -7 4 -8 3 -4 -5 6 -8 11 -9 21 -1 9 8 11 4 7 -17 -4 -27 -4 -27 12 -8 l16
20 -7 -20 c-3 -11 -10 -25 -15 -32 -6 -7 -4 -14 3 -19 7 -4 9 -3 6 3 -4 6 0
13 8 17 8 3 17 0 21 -6 5 -7 2 -8 -6 -3 -8 5 -11 4 -7 -2 8 -13 75 -22 81 -11
3 5 3 3 2 -4 -2 -7 -15 -12 -30 -12 -14 1 -24 -1 -21 -5 4 -3 14 -6 23 -6 11
0 16 -7 14 -20 -2 -18 -2 -18 8 -3 6 10 16 18 21 18 6 0 8 -4 5 -8 -2 -4 -1
-14 3 -21 6 -10 10 -9 14 4 5 11 3 14 -6 9 -8 -5 -7 -2 2 9 15 18 26 23 16 7
-3 -5 0 -10 7 -10 8 0 9 -3 3 -8 -14 -10 -15 -52 -1 -49 6 1 10 -6 8 -16 -2
-9 2 -17 8 -17 6 0 8 6 4 13 -4 6 -3 8 1 4 15 -13 14 -36 -1 -30 -8 3 -14 1
-14 -5 0 -12 18 -11 39 2 10 6 12 5 7 -2 -4 -7 -3 -12 3 -12 5 0 11 5 13 12 3
7 7 5 11 -6 4 -9 3 -15 -2 -11 -5 3 -13 0 -17 -7 -4 -7 -4 -10 1 -6 4 4 14 3
22 -4 8 -6 13 -7 12 -2 -1 5 -1 16 1 24 1 11 4 9 10 -5 8 -19 9 -19 9 3 1 13
5 21 11 17 5 -3 8 -11 6 -18 -1 -7 -1 -8 2 -4 2 4 11 2 20 -5 15 -11 15 -11 5
3 -7 9 -10 19 -6 22 3 4 -2 9 -11 13 -14 5 -12 11 14 35 32 31 31 36 -2 18
-16 -9 -19 -8 -12 3 5 7 10 24 10 38 3 37 3 37 20 44 8 3 13 2 10 -2 -3 -5 1
-9 7 -9 7 0 13 11 13 24 0 13 -3 23 -6 23 -4 0 -5 15 -4 33 1 17 2 32 3 32 2
0 4 8 6 17 2 10 -8 27 -22 38 -14 11 -20 20 -14 20 7 0 9 4 6 10 -3 6 1 7 10
3 14 -5 14 -8 3 -15 -10 -8 -10 -9 2 -5 9 2 14 14 13 30 -2 20 2 25 15 21 10
-4 13 -3 6 3 -6 4 -14 17 -18 27 -7 19 -6 19 12 3 19 -17 19 -17 15 8 -3 13
-10 22 -15 19 -5 -3 -4 3 3 14 12 19 14 19 27 4 7 -9 11 -11 7 -4 -3 6 -1 12
6 12 7 0 4 7 -7 15 -18 15 -18 15 0 8 12 -4 17 -3 13 4 -4 6 0 16 8 23 8 7 12
17 8 23 -4 6 -1 7 6 3 9 -6 8 -12 -4 -26 -14 -15 -14 -18 -1 -23 10 -4 13 -1
10 7 -3 8 5 22 18 31 15 11 17 15 6 12 -10 -4 -18 -2 -18 3 0 6 5 10 11 10 5
0 7 5 4 10 -3 5 -2 10 4 10 5 0 11 -6 14 -12 3 -10 9 -8 24 4 18 17 20 17 38
0 19 -17 19 -17 1 6 -16 19 -17 22 -3 22 8 0 17 6 20 13 3 9 9 7 23 -5 17 -17
17 -17 -4 -13 -12 2 -22 -1 -22 -6 0 -6 6 -9 13 -6 6 2 21 -3 32 -12 18 -15
19 -15 6 2 -15 19 -9 22 20 6 11 -5 17 -14 14 -19 -3 -6 1 -7 9 -4 9 3 13 11
9 17 -3 6 -1 7 6 3 9 -6 9 -11 0 -22 -11 -13 -2 -19 24 -15 4 0 7 -4 7 -9 0
-6 -7 -10 -16 -8 -10 2 -19 -4 -21 -12 -4 -13 -3 -13 6 0 8 12 11 12 11 1 0
-7 6 -11 15 -8 17 7 30 -9 15 -18 -15 -9 -12 -21 5 -23 8 -1 22 -3 30 -4 11
-1 12 -5 4 -14 -7 -8 -7 -14 1 -19 5 -3 10 -12 10 -18 0 -8 -3 -8 -9 2 -5 8
-11 9 -15 3 -3 -6 -2 -13 3 -16 5 -3 7 -16 3 -28 -4 -16 -2 -19 9 -13 11 6 12
5 2 -6 -16 -16 -17 -33 -1 -23 7 4 8 3 4 -5 -4 -6 -12 -9 -17 -6 -5 3 -6 -1
-3 -9 3 -9 9 -14 13 -11 4 2 8 -2 8 -9 0 -20 -22 -9 -36 17 -9 18 -10 18 -5 2
4 -11 6 -28 6 -37 0 -9 5 -22 13 -28 7 -6 10 -20 7 -32 -4 -16 -2 -19 9 -13
11 7 12 6 2 -6 -10 -12 -10 -18 0 -28 9 -10 8 -14 -6 -22 -9 -6 -15 -15 -11
-20 3 -6 7 -21 9 -35 2 -18 -3 -24 -19 -25 -20 0 -21 -1 -1 -8 11 -5 24 -6 29
-3 5 3 6 0 2 -7 -4 -6 -13 -9 -19 -5 -7 3 -3 -2 7 -10 11 -9 14 -16 8 -16 -7
0 -12 -5 -12 -11 0 -5 6 -7 13 -3 10 6 10 4 0 -7 -16 -16 -17 -33 -2 -24 6 4
5 -2 -3 -14 -11 -18 -10 -23 7 -36 14 -11 15 -13 3 -9 -11 4 -16 0 -15 -13 1
-10 7 -21 12 -25 6 -5 5 -8 -4 -8 -11 0 -11 -3 -1 -15 11 -13 10 -14 -4 -9
-10 4 -15 12 -13 19 3 6 -1 12 -8 12 -20 0 -14 -18 13 -40 18 -15 20 -22 11
-33 -6 -8 -7 -14 -2 -14 15 0 13 -38 -3 -44 -9 -3 -12 -1 -9 4 3 6 2 10 -3 10
-12 0 -13 -48 -1 -56 5 -3 7 1 6 8 -2 7 -2 10 0 6 3 -4 4 -10 3 -14 -1 -3 7
-12 17 -20 15 -11 15 -13 1 -8 -11 4 -16 0 -15 -13 1 -10 7 -21 12 -25 6 -5 5
-8 -2 -8 -7 0 -13 -7 -13 -16 0 -9 5 -12 12 -8 7 4 8 3 4 -5 -4 -6 -11 -9 -15
-7 -4 3 -13 0 -21 -6 -12 -8 -12 -9 3 -4 9 3 17 1 17 -5 0 -6 5 -7 12 -3 7 4
8 3 4 -5 -4 -6 -11 -9 -15 -6 -5 2 -6 -7 -3 -20 2 -15 9 -22 16 -18 6 3 6 0
-1 -8 -16 -16 -17 -33 -2 -23 6 3 4 -5 -6 -19 -9 -15 -12 -28 -6 -31 5 -3 7
-16 3 -28 -4 -16 -2 -19 9 -13 11 6 12 5 2 -6 -16 -16 -17 -33 -1 -23 7 4 8 3
4 -5 -4 -6 -12 -9 -17 -6 -5 3 -6 -1 -3 -9 3 -9 9 -14 13 -11 4 2 8 -2 8 -9 0
-20 -22 -9 -36 17 -9 18 -10 18 -5 2 4 -11 6 -28 6 -37 0 -9 5 -22 13 -28 7
-6 10 -20 7 -32 -4 -16 -2 -19 9 -13 11 7 12 6 2 -6 -10 -12 -10 -18 0 -28 9
-10 8 -14 -6 -22 -14 -8 -15 -14 -6 -30 6 -12 8 -23 5 -26 -3 -4 0 -13 7 -21
9 -13 9 -14 0 -8 -19 11 -15 -5 5 -20 16 -13 16 -14 -3 -7 -18 6 -19 5 -5 -13
14 -18 14 -18 -2 -5 -10 7 -15 17 -12 22 3 5 0 9 -7 9 -8 0 -7 5 2 17 13 16
12 17 -3 4 -12 -9 -15 -18 -9 -30 13 -27 6 -97 -10 -93 -8 2 -10 0 -6 -4 22
-22 34 -11 31 30 -2 26 0 36 5 27 5 -8 7 -21 3 -29 -4 -11 -2 -13 9 -7 11 7
12 6 2 -6 -10 -12 -10 -18 0 -28 9 -10 8 -14 -5 -22 -14 -8 -15 -14 -7 -33 8
-16 8 -29 1 -43 -9 -16 -8 -20 6 -20 9 0 20 5 25 11 9 13 1 -39 -8 -54 -4 -6
-1 -9 7 -8 8 2 12 -5 10 -17 -3 -19 -3 -19 10 -3 10 13 17 15 28 7 12 -9 12
-10 -3 -5 -12 4 -17 2 -14 -6 2 -7 1 -20 -4 -28 -5 -11 -2 -16 11 -16 14 0 16
4 9 12 -7 8 -6 15 2 20 7 4 9 3 5 -4 -3 -6 -2 -14 4 -17 7 -4 8 -11 1 -18 -6
-8 -4 -17 7 -27 14 -13 15 -12 9 3 -4 11 -3 16 3 12 14 -9 12 -52 -2 -58 -10
-4 -10 -6 0 -6 7 -1 17 9 22 22 7 18 9 18 9 4 1 -10 6 -15 11 -12 6 4 8 10 6
14 -3 4 1 8 9 8 8 0 15 -4 15 -9 0 -4 -4 -8 -9 -8 -6 0 -9 -9 -8 -21 1 -20 3
-19 23 6 18 23 25 26 40 16 17 -11 17 -11 -3 -6 -13 4 -23 2 -23 -2 0 -11 155
-11 166 0 5 4 0 5 -11 2 -14 -5 -16 -4 -7 3 8 5 24 8 38 6 13 -1 22 2 18 7 -3
5 -9 7 -14 4 -5 -3 -11 -1 -15 4 -6 11 27 7 47 -5 6 -4 8 -3 5 3 -8 13 17 36
27 25 4 -4 6 -2 4 3 -2 6 2 11 7 13 6 2 14 10 18 18 5 8 13 12 19 8 5 -4 3 5
-6 18 -15 23 -15 26 1 39 11 9 14 10 9 2 -4 -7 -2 -13 3 -13 6 0 11 7 11 15 0
8 -6 15 -12 15 -9 0 -8 4 2 10 8 5 11 10 6 10 -5 0 -4 6 3 13 8 10 7 17 -2 26
-10 11 -8 11 10 2 14 -7 20 -17 17 -26 -4 -8 -10 -13 -15 -10 -9 6 -3 -34 7
-44 3 -3 5 1 3 9 -2 8 3 25 10 38 11 20 10 26 -6 38 -16 12 -16 13 -1 14 9 0
20 4 23 10 3 6 -1 7 -9 4 -9 -3 -16 -2 -16 4 0 6 5 12 12 14 7 3 5 7 -6 11 -9
4 -15 3 -12 -2 3 -4 -1 -17 -10 -27 -15 -18 -15 -18 -6 1 6 11 10 25 11 30 1
6 5 10 10 10 5 0 13 4 18 9 5 5 2 6 -6 1 -9 -5 -12 -3 -9 6 3 8 12 12 19 11 8
-2 10 0 6 4 -4 4 -15 9 -23 10 -9 1 -13 0 -10 -3 8 -8 -14 -33 -28 -33 -6 0
-3 5 7 11 15 9 16 13 5 27 -10 12 -10 14 0 8 7 -4 12 -2 12 4 0 6 4 9 9 5 5
-3 12 -1 15 4 4 6 -8 8 -26 6 -18 -2 -27 -1 -20 2 13 5 17 33 4 33 -4 0 -8 20
-8 45 -1 25 3 45 8 45 5 0 6 -5 2 -12 -4 -7 -3 -8 5 -4 16 10 -6 39 -23 29 -6
-3 -8 -3 -4 2 4 4 3 14 -3 22 -9 9 -8 13 0 13 6 0 11 -3 11 -8 0 -4 10 -13 23
-21 20 -13 21 -13 9 1 -7 9 -9 18 -5 20 4 3 2 3 -4 2 -7 -2 -13 4 -13 12 0 8
4 13 9 9 5 -3 12 -2 15 3 2 4 -7 9 -20 10 -17 1 -23 -2 -18 -10 4 -7 3 -8 -5
-4 -16 10 -4 26 19 26 10 0 21 4 24 9 3 4 -6 7 -19 5 -14 -1 -23 2 -19 7 3 5
10 6 16 3 6 -4 8 -1 6 7 -3 8 -10 13 -16 12 -6 -2 -9 4 -6 12 4 8 10 15 16 15
5 0 6 -5 2 -12 -4 -7 -3 -8 5 -4 16 10 -6 39 -23 29 -6 -3 -8 -3 -4 2 4 4 3
14 -3 22 -9 9 -8 13 0 13 6 0 11 -3 11 -8 0 -4 10 -13 23 -21 20 -13 21 -13 9
1 -7 9 -9 18 -5 20 4 3 2 3 -4 2 -7 -2 -13 4 -13 12 0 8 4 13 9 9 5 -3 12 -2
15 3 2 4 -7 9 -20 10 -17 1 -23 -2 -18 -10 4 -7 3 -8 -5 -4 -16 10 -4 26 19
26 10 0 21 4 24 9 3 4 -6 7 -19 5 -14 -1 -23 2 -19 7 3 5 10 6 16 3 8 -5 9 -1
4 11 -4 10 0 28 9 41 9 13 11 24 6 24 -5 0 -11 -6 -14 -12 -2 -7 -8 -10 -11
-6 -4 3 2 16 13 27 11 11 16 23 11 26 -6 4 -10 1 -10 -6 0 -10 -3 -10 -12 -1
-10 10 -10 15 2 22 10 7 11 10 3 10 -7 0 -13 6 -13 14 0 8 -8 17 -17 21 -14 5
-15 3 -6 -6 6 -6 9 -18 6 -27 -5 -11 -3 -13 7 -7 9 6 11 4 5 -4 -14 -24 -32
13 -39 81 -1 15 1 25 5 22 4 -2 6 7 3 22 -3 19 -1 24 8 18 10 -6 9 -3 -1 9
-15 19 -26 23 -15 5 4 -6 3 -8 -4 -4 -6 3 -9 15 -7 26 2 11 -1 20 -7 20 -6 0
-9 2 -6 5 3 3 13 2 22 -1 12 -5 14 -9 6 -14 -8 -5 -7 -9 3 -13 16 -6 17 9 3
32 -5 8 -4 16 4 21 8 5 7 9 -5 13 -9 4 -13 3 -10 -2 3 -5 1 -12 -4 -15 -11 -7
-9 13 4 33 5 10 4 16 -3 19 -7 2 -12 8 -12 14 0 6 6 5 15 -2 9 -7 18 -10 22
-6 3 3 1 6 -4 6 -7 0 -11 24 -11 60 1 33 4 60 9 60 6 0 5 29 -1 38 -2 1 -3 6
-4 11 0 5 -4 12 -8 16 -8 8 2 37 16 47 7 5 6 8 -3 8 -9 0 -10 4 -4 13 12 14
-9 61 -22 49 -5 -4 -5 -1 -1 6 4 6 15 12 24 12 14 1 14 2 -3 12 -19 12 -19 12
5 19 l25 7 -27 1 c-24 1 -26 4 -25 45 1 24 5 42 8 40 4 -2 5 -20 3 -39 -1 -19
2 -35 7 -35 6 0 7 5 4 10 -3 6 0 10 7 10 10 0 10 2 -1 9 -8 5 -9 11 -3 15 7 4
6 14 -1 30 -7 13 -16 22 -21 19 -5 -4 -6 -1 -2 5 4 7 14 12 22 12 8 0 12 5 9
10 -4 7 -14 6 -28 -1 -19 -9 -18 -7 4 13 27 24 38 78 16 78 -9 0 -9 2 0 8 6 4
13 16 15 27 1 11 12 28 22 37 28 26 31 22 7 -8 -23 -29 -27 -44 -10 -44 5 0 7
5 4 10 -3 6 -1 10 6 10 7 0 9 3 6 7 -10 9 13 34 25 27 6 -4 5 3 -1 14 -7 14
-18 19 -29 16 -15 -5 -15 -4 1 6 15 10 21 8 33 -7 9 -10 12 -12 8 -4 -4 9 -2
12 7 9 8 -3 22 -1 33 4 12 7 16 7 12 0 -6 -10 30 -28 47 -24 5 1 6 -2 2 -8 -3
-5 1 -13 9 -16 9 -3 16 -11 16 -17 0 -7 -4 -7 -12 1 -7 7 -17 12 -22 12 -6 0
0 -9 14 -20 18 -14 28 -16 38 -8 10 8 11 7 6 -7 -5 -13 -4 -16 4 -11 7 4 12 1
12 -9 0 -10 -5 -13 -12 -9 -7 5 -8 3 -3 -6 6 -10 11 -9 22 6 8 10 17 17 21 15
4 -2 17 -7 30 -12 21 -8 22 -7 12 14 -10 20 -10 21 3 4 10 -12 17 -14 22 -8 9
15 28 14 22 -1 -2 -7 -9 -12 -15 -11 -5 1 -12 -3 -15 -10 -3 -7 3 -13 13 -13
10 0 17 4 14 7 -2 4 0 10 6 14 5 3 10 1 10 -5 0 -7 7 -4 16 5 9 9 13 19 10 23
-4 3 -12 0 -17 -8 -9 -13 -10 -13 -6 0 2 8 10 16 18 16 8 1 19 3 24 4 6 1 14
2 18 1 5 -1 6 3 2 8 -3 6 -13 7 -23 4 -13 -4 -14 -3 -6 6 6 7 21 13 33 14 22
1 22 2 4 17 -10 8 -22 24 -26 34 -8 20 -8 20 14 0 l22 -19 -18 27 c-9 15 -22
25 -28 21 -6 -4 -7 -1 -2 6 5 9 14 6 33 -11 15 -13 20 -15 13 -5 -7 9 -10 17
-5 17 4 0 -1 6 -11 14 -13 9 -19 26 -20 49 0 19 3 33 7 31 4 -3 6 8 4 24 -3
29 13 36 43 18 9 -6 7 0 -4 17 -12 19 -13 27 -4 33 8 5 9 3 4 -6 -6 -9 -4 -11
4 -6 7 5 10 15 7 23 -3 8 -2 11 3 8 6 -3 14 3 20 12 6 10 11 14 11 9 0 -6 7
-1 15 10 11 13 14 14 13 4 -2 -11 4 -14 21 -12 13 2 28 -2 32 -10 7 -10 9 -9
9 4 0 12 6 16 18 12 16 -5 16 -5 -1 9 -17 14 -17 15 6 13 17 -1 23 -6 20 -16
-3 -10 0 -9 7 3 6 9 8 22 4 28 -4 8 0 8 15 0 17 -10 20 -9 15 4 -4 8 -10 15
-15 15 -5 0 -9 5 -9 10 0 7 6 7 19 0 25 -13 34 -13 26 0 -3 6 -1 10 5 10 7 0
10 6 7 14 -3 7 2 24 10 37 9 12 11 19 5 15 -7 -4 -12 -1 -12 8 0 9 -6 16 -12
16 -8 0 -9 3 -3 8 15 11 19 46 4 36 -8 -5 -10 -3 -5 5 11 17 21 4 21 -26 0
-18 6 -27 18 -29 16 -2 17 0 5 14 -11 13 -18 117 -8 117 1 0 3 11 6 24 4 21 3
22 -13 10 -17 -13 -17 -13 -1 6 12 15 14 25 7 37 -7 13 -7 16 4 12 14 -5 17
-70 4 -90 -4 -7 -1 -14 7 -17 8 -3 13 1 12 11 -1 11 5 16 17 14 16 -3 16 -1
-3 18 -16 16 -19 25 -11 34 6 7 8 16 4 20 -4 4 -8 34 -9 66 -1 49 2 58 13 49
7 -6 13 -7 13 -2 0 5 -11 16 -25 23 -16 9 -23 20 -21 34 2 12 0 26 -5 32 -5 6
-3 11 5 11 9 0 12 -10 11 -29 -2 -25 -1 -27 13 -16 14 11 15 10 8 -7 -6 -16
-5 -17 5 -8 10 10 9 16 -2 30 -17 20 -19 44 -4 41 5 -2 9 -7 7 -11 -1 -5 2 -5
9 -2 7 5 4 14 -10 29 -27 29 -28 31 -13 49 9 11 10 17 2 22 -6 4 -7 12 -2 18
7 11 8 29 2 42 -3 7 -7 23 -9 36 0 6 -8 8 -17 5 -8 -3 -12 -2 -9 4 3 6 15 10
26 10 20 0 20 0 -1 22 -25 27 -25 37 -1 35 15 -1 17 -4 9 -14 -7 -9 -6 -14 6
-19 9 -4 20 -4 23 0 4 3 -2 6 -12 6 -16 0 -14 5 11 32 16 18 20 26 10 18 -18
-14 -19 -13 -13 3 4 10 3 16 -1 13 -4 -2 -14 0 -22 5 -11 7 -6 8 15 4 26 -4
31 -1 32 18 1 12 -1 17 -5 10 -5 -7 -11 -6 -22 5 -13 14 -12 15 4 9 14 -6 17
-4 12 9 -5 14 -4 15 8 5 10 -8 16 -9 21 -1 3 6 10 8 14 6 4 -3 8 1 8 9 0 8 -3
12 -7 10 -3 -2 -12 6 -20 18 -12 20 -12 21 3 9 13 -11 16 -10 20 5 4 17 5 17
6 1 0 -10 6 -18 12 -18 5 0 8 4 4 9 -3 6 5 8 19 5 14 -2 27 0 31 5 3 6 11 9
18 7 7 -1 9 -1 5 1 -11 7 -10 31 2 38 6 3 7 -1 4 -9 -3 -9 -1 -16 5 -16 6 0
11 5 11 11 0 5 6 7 13 3 6 -4 8 -3 4 1 -4 5 3 15 15 23 22 13 17 12 -22 -1 -3
-1 -5 3 -5 8 0 6 5 9 12 7 7 -2 13 2 13 8 0 5 -5 10 -11 10 -6 0 -1 9 12 21
17 14 19 19 7 15 -10 -3 -20 0 -24 6 -4 7 -3 8 4 4 7 -4 12 -1 12 8 0 9 -6 16
-12 16 -7 0 -5 5 5 11 9 5 17 14 17 19 0 5 -8 7 -17 4 -14 -5 -15 -4 -4 4 7 5
11 14 7 20 -3 6 1 18 10 26 8 9 11 16 6 16 -11 0 -11 18 1 37 4 6 4 18 1 27
-5 12 -2 15 12 10 15 -5 16 -4 4 4 -8 6 -18 8 -24 5 -5 -3 -6 -1 -2 5 3 6 -2
16 -11 22 -15 10 -15 11 -1 6 9 -2 19 2 22 10 3 8 2 13 -3 10 -5 -3 -15 2 -22
11 -12 14 -12 16 1 8 22 -14 47 -13 47 1 0 7 -6 10 -13 7 -7 -2 -21 0 -31 6
-12 7 -13 11 -4 11 7 0 11 6 7 15 -3 8 2 21 10 30 9 9 11 15 4 15 -6 0 -8 5
-5 10 4 6 12 7 18 4 9 -5 9 -3 0 6 -10 11 -15 11 -29 -1 -16 -13 -16 -12 -3
10 8 14 22 34 31 45 10 11 15 22 12 25 -4 3 -9 0 -11 -7 -3 -7 -14 -17 -26
-23 -22 -10 -22 -10 -2 6 21 17 21 21 2 44 -10 12 -9 13 2 6 11 -6 13 -4 8 8
-4 11 -2 14 9 10 12 -4 12 -8 2 -22 -12 -14 -11 -14 4 -2 10 7 15 17 12 22 -3
5 0 9 6 9 6 0 9 4 5 10 -3 5 -13 7 -23 4 -14 -5 -14 -4 -2 4 8 6 18 8 24 5 5
-4 7 1 3 11 -5 12 -3 16 5 13 7 -2 12 -10 10 -16 -1 -7 2 -10 7 -7 5 3 7 16 5
29 -2 12 -2 17 2 10 4 -10 8 -10 19 0 7 7 11 15 8 20 -2 4 4 7 13 7 10 0 14 3
11 7 -9 9 12 33 30 33 8 0 12 -4 9 -9 -4 -5 4 -7 16 -3 l22 5 -22 8 c-19 7
-21 11 -10 28 6 11 16 18 20 15 4 -3 16 0 25 6 17 11 17 11 1 6 -13 -4 -18 0
-18 14 0 11 3 19 8 17 4 -1 7 3 7 8 0 6 -9 9 -20 7 -15 -1 -17 0 -6 7 8 5 15
21 15 36 1 14 8 30 16 36 13 8 13 10 0 19 -9 6 -10 10 -3 10 6 0 15 -4 18 -10
3 -5 12 -10 18 -10 8 0 8 3 2 8 -15 10 -17 30 -5 52 8 15 6 21 -7 29 -10 6
-12 11 -6 11 7 0 12 4 10 9 -1 5 7 17 18 26 11 9 15 14 9 11 -7 -3 -15 1 -18
10 -5 12 -1 14 17 9 l22 -7 -23 17 c-18 13 -21 20 -11 31 6 8 17 14 23 14 6 0
3 -7 -8 -15 -18 -14 -18 -14 1 -12 19 1 25 16 25 70 0 15 4 27 9 27 5 0 9 -5
9 -12 0 -6 2 -9 5 -6 8 8 -6 39 -15 33 -19 -12 -1 29 21 47 13 11 19 17 12 14
-6 -3 -19 -3 -28 0 -15 6 -15 8 1 25 9 10 23 15 32 11 12 -4 10 1 -6 18 -25
27 -21 40 5 19 16 -13 17 -12 4 4 -11 14 -11 17 0 17 12 0 12 2 0 9 -7 5 -10
14 -7 20 13 21 17 61 6 61 -6 0 -8 -4 -5 -10 3 -5 1 -10 -5 -10 -7 0 -10 7 -6
15 3 8 -2 19 -12 24 -9 5 -13 13 -8 18 5 4 11 2 13 -5 3 -6 10 -9 15 -6 7 5 8
2 3 -7 -6 -11 -5 -11 5 -2 10 9 7 17 -16 39 -16 14 -21 21 -11 14 14 -11 17
-10 17 7 0 28 11 35 24 17 10 -13 12 -13 12 5 0 11 -3 19 -6 19 -18 -2 -30 3
-30 12 0 6 7 10 16 8 10 -2 18 5 20 15 2 14 -2 16 -17 12 -20 -7 -20 -6 -2 14
9 12 24 21 33 21 13 1 12 2 -2 10 -10 6 -14 18 -11 30 3 11 9 18 13 15 5 -3 6
5 2 17 -3 14 -2 19 6 14 7 -4 12 -1 12 9 0 9 -4 14 -9 10 -5 -3 -13 0 -17 6
-4 8 -3 9 4 5 6 -3 16 2 21 13 14 25 14 42 0 19 -5 -10 -15 -18 -22 -18 -8 0
-7 4 2 9 13 8 13 12 0 28 -12 16 -12 17 1 7 9 -7 23 -8 35 -3 19 7 19 8 -2 8
-13 1 -23 6 -23 12 0 5 4 8 8 5 5 -3 9 1 9 10 0 10 -7 12 -21 8 -21 -6 -21 -6
-1 9 15 12 23 13 35 4 13 -10 13 -10 1 5 -7 10 -18 15 -25 11 -8 -5 -8 -3 0 8
19 24 13 50 -10 44 -12 -3 -15 -2 -8 1 6 3 12 14 12 25 0 10 6 19 13 20 6 0 2
5 -10 11 -14 7 -22 22 -25 43 -3 28 -1 32 12 25 12 -6 17 -5 17 5 0 8 -4 12
-9 9 -4 -3 -8 0 -8 5 0 6 5 11 12 11 6 0 8 3 5 6 -4 4 -13 2 -20 -5 -12 -9
-13 -7 -9 14 2 14 8 25 12 25 4 0 8 12 8 26 0 18 -3 22 -9 13 -6 -10 -9 -5 -9
14 0 19 -4 26 -12 21 -7 -4 -8 -3 -4 4 4 7 17 12 29 13 20 0 20 1 3 8 -13 5
-19 18 -20 43 -1 30 2 35 15 28 11 -6 16 -5 16 5 0 8 -4 12 -9 9 -4 -3 -8 0
-8 5 0 6 5 11 12 11 6 0 8 3 5 6 -4 4 -13 2 -20 -5 -12 -9 -13 -7 -9 14 2 14
8 25 12 25 4 0 8 12 8 26 0 18 -3 22 -9 13 -6 -10 -9 -5 -9 14 0 19 -4 26 -12
21 -7 -4 -8 -3 -4 4 4 7 17 12 29 13 22 0 22 0 1 9 -17 7 -20 15 -16 42 2 18
12 42 21 52 9 11 10 16 3 12 -7 -4 -15 -1 -18 8 -3 9 -11 13 -17 9 -5 -3 -7
-2 -4 4 9 14 30 66 32 78 1 6 -3 15 -8 22 -5 7 -9 28 -10 48 -1 19 -4 35 -9
35 -4 0 -5 8 -1 18 3 9 3 14 -1 11 -11 -10 -16 -50 -6 -44 6 3 7 -1 3 -10 -4
-13 -8 -14 -14 -4 -4 7 -6 16 -3 20 2 4 0 10 -5 14 -6 3 -7 15 -1 29 6 17 5
23 -5 23 -8 0 -12 -4 -9 -9 3 -4 0 -8 -6 -8 -7 0 -9 7 -6 16 3 9 6 18 6 20 0
3 4 3 8 0 5 -3 9 1 9 9 0 8 -3 13 -6 12 -3 0 -22 9 -41 22 -28 18 -30 21 -10
16 24 -7 24 -7 5 8 -12 9 -24 12 -30 7 -7 -6 -11 -1 -12 13 -1 12 1 17 5 12
10 -14 32 -17 32 -5 0 5 -6 10 -12 10 -9 0 -8 4 2 10 12 8 12 10 1 10 -11 0
-11 3 0 17 10 11 10 14 2 9 -12 -6 -18 5 -14 27 0 4 -4 7 -10 7 -6 0 -9 -7 -6
-14 4 -10 1 -13 -9 -9 -8 3 -13 8 -10 11 3 2 0 14 -6 26 -7 11 -13 27 -14 34
-1 8 -11 20 -21 28 -17 13 -17 14 2 8 16 -5 17 -4 5 4 -18 14 -33 4 -26 -17 5
-13 3 -12 -8 3 -9 10 -20 15 -27 10 -8 -5 -10 -3 -5 5 5 7 14 10 22 7 8 -3 14
-1 14 4 0 10 -15 14 -34 11 -5 -1 -4 5 4 13 10 13 10 16 -1 18 -8 0 -19 2 -24
2 -6 1 -22 12 -35 24 l-25 24 27 -13 c15 -6 25 -16 22 -20 -3 -5 2 -6 12 -2
14 5 14 7 -5 18 -12 6 -19 13 -17 16 5 4 -12 8 -51 11 -7 1 -9 6 -6 11 4 7 -1
8 -12 3 -15 -5 -16 -4 -6 8 11 13 8 16 -12 22 -17 4 -24 11 -20 20 3 8 0 14
-6 14 -6 0 -11 -5 -11 -12 0 -6 -2 -9 -5 -6 -3 3 -1 16 4 30 8 21 6 24 -13 23
-11 0 -26 -4 -33 -8 -6 -4 -15 -3 -18 3 -4 6 -1 9 6 8 7 -2 14 7 15 19 1 12
-4 21 -9 20 -6 -1 -11 5 -12 13 0 9 -8 14 -18 12 -9 -2 -17 2 -17 9 0 6 -8 9
-20 6 -13 -3 -25 2 -33 14 -8 10 -17 17 -20 14 -4 -3 -5 -2 -2 2 3 3 -1 13 -8
22 -7 9 -2 7 14 -4 15 -11 24 -24 21 -29 -3 -5 1 -6 8 -1 9 6 11 4 5 -5 -6 -9
-4 -11 5 -5 10 6 8 12 -8 25 -12 10 -20 19 -19 21 1 2 0 3 -2 1 -3 -1 -16 8
-30 20 -14 13 -20 16 -14 8 8 -11 9 -20 2 -30 -9 -13 -10 -13 -7 0 3 19 -20
62 -30 56 -4 -2 -7 10 -6 28 2 30 0 32 -28 30 -16 -1 -27 0 -24 3 3 4 -2 13
-12 21 -10 8 -5 7 11 -3 16 -9 31 -14 35 -11 3 3 0 6 -7 6 -7 0 -9 5 -6 10 4
6 1 9 -6 8 -6 -2 -14 3 -17 11 -2 8 0 11 5 8 5 -3 10 0 10 8 0 8 -3 13 -5 10
-3 -3 -11 0 -18 6 -8 7 -14 6 -20 -2 -5 -8 -3 -9 6 -4 9 6 11 4 5 -5 -6 -9 -4
-11 5 -5 8 5 11 4 6 -3 -9 -16 -38 -2 -32 14 3 8 9 22 12 32 5 16 5 16 -6 0
-6 -10 -16 -18 -23 -18 -8 0 -7 3 2 9 8 5 11 16 8 24 -3 9 -1 17 6 20 6 2 4 6
-6 10 -9 3 -19 1 -23 -5 -4 -6 -3 -8 2 -5 6 3 10 -4 11 -16 0 -12 -1 -16 -4
-9 -3 6 -8 10 -13 7 -4 -2 -7 5 -6 18 0 12 8 25 16 29 13 6 13 7 0 7 -9 1 -33
21 -54 46 -20 25 -41 43 -47 40 -5 -3 -6 1 -3 9 3 9 11 16 17 16 7 0 7 4 -1
12 -14 14 -45 20 -36 7 3 -5 0 -9 -5 -9 -6 0 -11 5 -11 10 0 6 -5 10 -11 10
-5 0 -8 -4 -5 -8 3 -5 -1 -9 -9 -9 -11 0 -12 4 -4 14 8 9 8 17 0 26 -6 8 -7
18 -3 22 4 5 1 5 -6 1 -10 -6 -10 -11 -2 -21 8 -9 8 -15 0 -20 -6 -4 -9 -1 -8
7 2 7 -2 12 -8 11 -8 -1 -10 6 -6 19 4 17 2 20 -15 16 -15 -4 -20 -1 -19 11 1
12 -6 15 -27 13 -22 -3 -30 1 -34 17 -3 11 -9 18 -14 15 -5 -3 -7 -9 -5 -13 3
-4 -1 -8 -9 -8 -8 0 -12 4 -9 8 2 4 -1 11 -7 14 -5 4 -8 13 -5 21 6 16 -10 29
-19 15 -3 -5 -15 -9 -28 -9 -25 2 -59 27 -52 38 3 5 -4 6 -15 3 -18 -5 -25 5
-21 30 1 4 -8 3 -19 -3 -17 -9 -20 -8 -20 10 0 11 -6 19 -12 17 -7 -1 -12 5
-10 13 2 8 0 12 -4 8 -4 -4 -14 -2 -23 4 -10 8 -9 4 3 -10 11 -12 15 -22 10
-22 -5 0 -2 -5 6 -10 12 -7 10 -9 -7 -7 -17 1 -19 4 -11 14 12 15 -3 18 -18 3
-7 -7 -11 -6 -11 4 0 8 5 12 10 9 6 -3 7 -1 3 5 -4 7 -14 12 -22 12 -8 0 -13
-4 -10 -8 3 -5 -1 -9 -9 -9 -8 0 -13 5 -12 11 1 6 -6 10 -15 8 -10 -2 -18 1
-18 7 0 10 19 9 38 -2 7 -5 12 -4 12 2 0 10 -14 15 -32 12 -5 0 -8 5 -8 12 -1
6 -7 1 -16 -13 -15 -25 -15 -25 -8 -1 4 15 2 21 -4 17 -6 -3 -13 0 -15 6 -3 7
-4 -2 -2 -21 2 -18 1 -30 -3 -26 -4 4 -7 10 -7 13 -1 4 -4 17 -9 29 l-7 22
-20 -20 c-20 -20 -22 -20 -40 -3 -10 9 -16 21 -12 27 3 6 1 7 -6 3 -6 -4 -9
-11 -6 -16 3 -4 -3 -14 -13 -21 -15 -13 -16 -12 -4 3 11 14 9 18 -20 32 -33
16 -33 16 -11 -3 19 -16 20 -20 7 -25 -8 -3 -13 -2 -10 3 3 4 -22 7 -54 5 -33
-2 -60 1 -60 6 0 5 8 7 18 4 14 -5 14 -4 2 4 -10 8 -19 7 -29 -1 -8 -7 -16
-10 -18 -9 -3 2 -8 0 -11 -4 -4 -4 -2 -4 4 -1 7 4 18 -1 25 -11 12 -15 12 -16
-1 -6 -8 6 -23 10 -32 9 -14 -3 -16 0 -8 15 19 35 10 34 -21 0 -17 -19 -26
-28 -20 -18 10 13 7 19 -21 32 -33 16 -33 16 -11 -3 19 -16 20 -20 7 -25 -8
-3 -13 -2 -10 3 3 4 -22 7 -54 5 -33 -2 -60 1 -60 6 0 5 8 7 18 4 14 -5 14 -4
2 4 -10 8 -19 7 -29 -1 -8 -7 -15 -10 -17 -7 -1 3 -6 1 -11 -4 -4 -5 -3 -6 3
-3 7 4 18 -1 25 -11 12 -15 12 -16 -1 -6 -8 6 -23 10 -32 9 -14 -3 -16 0 -8
15 19 35 10 34 -21 0 -17 -19 -26 -28 -20 -18 10 13 7 19 -21 32 -33 16 -33
16 -11 -3 19 -16 20 -20 7 -25 -8 -3 -13 -2 -10 3 3 4 -22 7 -54 5 -33 -2 -60
1 -60 5 0 11 -26 8 -37 -4 -4 -4 -3 -5 3 -2 7 4 18 -1 25 -11 12 -15 12 -16
-1 -6 -8 6 -23 10 -32 9 -15 -3 -16 0 -7 17 17 32 6 30 -24 -5z m-62 -17 c-3
-5 -12 -10 -18 -10 -7 0 -6 4 3 10 19 12 23 12 15 0z m862 -22 c-3 -7 -5 -2
-5 12 0 14 2 19 5 13 2 -7 2 -19 0 -25z m-1137 -2 c0 -2 -7 -7 -16 -10 -8 -3
-12 -2 -9 3 3 5 1 12 -5 16 -5 3 -10 -2 -10 -11 0 -10 -3 -15 -6 -11 -4 3 -4
13 0 22 4 13 10 14 26 5 11 -6 20 -12 20 -14z m180 10 c-13 -13 -50 -18 -50
-8 0 14 8 18 35 18 16 0 22 -3 15 -10z m56 -4 c1 -7 0 -8 -3 -2 -2 5 -9 10
-14 10 -6 0 -7 -5 -3 -12 4 -7 3 -8 -5 -4 -14 9 -4 29 12 23 6 -2 12 -9 13
-15z m-322 0 c3 -5 -1 -9 -9 -9 -8 0 -15 4 -15 9 0 4 4 8 9 8 6 0 12 -4 15 -8z
m131 -14 c5 -4 0 -6 -12 -6 -13 1 -19 7 -16 15 3 8 8 10 12 6 3 -4 10 -11 16
-15z m72 8 c0 -15 -21 -16 -34 -1 -4 4 -3 5 4 1 6 -3 14 -2 18 4 8 14 12 13
12 -4z m-307 -30 c0 -3 -4 -8 -10 -11 -5 -3 -10 -1 -10 4 0 6 5 11 10 11 6 0
10 -2 10 -4z m-125 -35 c3 -5 2 -12 -3 -15 -5 -3 -9 1 -9 9 0 17 3 19 12 6z
m1728 -46 c-3 -9 -8 -14 -10 -11 -3 3 -2 9 2 15 9 16 15 13 8 -4z m-1942 -18
c-10 -9 -11 -8 -5 6 3 10 9 15 12 12 3 -3 0 -11 -7 -18z m2285 -175 c-18 -16
-18 -16 -6 6 6 13 14 21 18 18 3 -4 -2 -14 -12 -24z m-2761 -84 c5 4 5 1 1 -6
-6 -10 -11 -10 -22 -1 -8 6 -14 14 -14 16 0 3 6 0 13 -6 8 -6 18 -7 22 -3z
m-65 -52 c0 -2 -7 -7 -16 -10 -8 -3 -12 -2 -9 4 6 10 25 14 25 6z m3225 -335
c-3 -5 -1 -12 5 -16 5 -3 10 -12 10 -18 0 -7 -6 -4 -14 5 -7 10 -16 15 -19 11
-4 -3 -7 -1 -7 5 0 5 6 13 13 15 18 8 19 8 12 -2z m59 -69 c3 -5 -1 -9 -9 -9
-8 0 -12 4 -9 9 3 4 7 8 9 8 2 0 6 -4 9 -8z m-3987 -347 c0 -8 -4 -12 -9 -9
-4 3 -8 0 -8 -5 0 -6 -5 -11 -12 -11 -6 0 -3 9 7 20 22 24 22 24 22 5z m4300
-12 c0 -17 -5 -16 -23 1 -12 13 -12 15 4 13 10 0 19 -7 19 -14z m-4392 -101
c-3 -3 -1 -10 5 -16 6 -8 3 -12 -8 -12 -10 0 -18 8 -18 16 0 9 6 17 13 17 7 0
11 -3 8 -5z m4444 -6 c9 -11 9 -16 -1 -22 -7 -4 -10 -4 -6 1 4 4 3 14 -3 22
-6 7 -9 13 -6 13 2 0 10 -6 16 -14z m-4465 -94 c3 -5 -1 -9 -9 -9 -8 0 -12 4
-9 9 3 4 7 8 9 8 2 0 6 -4 9 -8z m4542 -109 c1 -7 -4 -17 -12 -24 -17 -14 -18
-5 -3 23 9 17 9 20 -3 15 -11 -4 -14 1 -10 21 l5 26 10 -25 c5 -13 11 -29 13
-36z m-4597 -33 c-11 -6 -15 -20 -13 -39 2 -18 -2 -31 -10 -34 -10 -4 -13 4
-11 30 2 33 17 53 40 53 6 -1 3 -5 -6 -10z m4595 -69 c3 -5 -1 -11 -9 -14 -9
-4 -12 -1 -8 9 6 16 10 17 17 5z m-4624 -86 c0 -2 -6 -5 -13 -8 -8 -3 -14 1
-14 8 0 7 6 11 14 8 7 -3 13 -6 13 -8z m4630 -101 c0 -2 -7 -4 -15 -4 -8 0
-15 4 -15 10 0 5 7 7 15 4 8 -4 15 -8 15 -10z m0 -240 c0 -2 -7 -4 -15 -4 -8
0 -15 4 -15 10 0 5 7 7 15 4 8 -4 15 -8 15 -10z m-4675 -24 c-3 -5 -12 -10
-18 -10 -7 0 -6 4 3 10 19 12 23 12 15 0z m4682 -136 c-3 -3 -12 -4 -19 -1 -8
3 -5 6 6 6 11 1 17 -2 13 -5z m-4683 -40 c3 -8 2 -12 -4 -9 -6 3 -10 10 -10
16 0 14 7 11 14 -7z m4696 -30 c0 -8 -19 -13 -24 -6 -3 5 1 9 9 9 8 0 15 -2
15 -3z m-4710 -58 c0 -2 -7 -7 -16 -10 -8 -3 -12 -2 -9 4 6 10 25 14 25 6z
m50 -380 c0 -3 -4 -8 -10 -11 -5 -3 -10 -1 -10 4 0 6 5 11 10 11 6 0 10 -2 10
-4z m4592 -73 c-6 -2 -10 -8 -8 -12 3 -4 -1 -8 -9 -8 -8 0 -15 4 -15 8 0 8 19
17 35 17 6 0 4 -2 -3 -5z m-4562 -127 c0 -3 -4 -8 -10 -11 -5 -3 -10 -1 -10 4
0 6 5 11 10 11 6 0 10 -2 10 -4z m4515 -135 c3 -5 0 -13 -6 -17 -7 -4 -9 -3
-5 4 3 5 0 13 -6 15 -9 4 -10 6 -1 6 6 1 14 -3 18 -8z m-4485 -52 c0 -5 0 -11
0 -14 0 -8 -15 -6 -15 3 0 4 -4 13 -8 19 -6 9 -3 11 7 7 9 -3 16 -10 16 -15z
m4440 -53 c0 -2 -8 -10 -17 -17 -16 -13 -17 -12 -4 4 13 16 21 21 21 13z
m-4325 -306 c-3 -5 -12 -10 -18 -10 -7 0 -6 4 3 10 19 12 23 12 15 0z m11 -39
c-1 -3 -6 -14 -9 -24 -4 -10 -12 -15 -17 -12 -8 5 -7 11 0 20 7 8 9 19 5 24
-3 7 0 8 9 5 9 -3 14 -9 12 -13z m19 -79 c-3 -3 -11 0 -18 7 -9 10 -8 11 6 5
10 -3 15 -9 12 -12z m95 -124 c0 -6 -6 -5 -15 2 -8 7 -15 14 -15 16 0 2 7 1
15 -2 8 -4 15 -11 15 -16z m25 -39 c11 -17 -1 -21 -15 -4 -8 9 -8 15 -2 15 6
0 14 -5 17 -11z m3929 -220 c-3 -5 -11 -9 -17 -8 -8 0 -8 2 1 6 10 4 10 8 0
21 -12 15 -11 16 4 3 10 -7 15 -17 12 -22z m-100 -278 c3 -5 -1 -11 -9 -14 -9
-4 -12 -1 -8 9 6 16 10 17 17 5z m21 -21 c-3 -5 -12 -10 -18 -10 -7 0 -6 4 3
10 19 12 23 12 15 0z m-96 -44 c8 -10 9 -16 1 -21 -6 -4 -9 -1 -8 7 2 7 -3 12
-10 10 -8 -1 -11 2 -7 8 8 13 10 13 24 -4z m-46 -110 c4 -10 1 -13 -8 -9 -8 3
-12 9 -9 14 7 12 11 11 17 -5z m-3223 -106 c0 -5 -2 -10 -4 -10 -3 0 -8 5 -11
10 -3 6 -1 10 4 10 6 0 11 -4 11 -10z m3194 -11 c-2 -4 0 -10 5 -13 16 -10 5
-41 -15 -43 -18 -3 -18 -2 1 6 14 7 15 10 5 10 -13 1 -13 2 0 11 8 5 10 10 4
10 -7 0 -14 6 -17 13 -3 8 1 14 9 14 7 0 11 -4 8 -8z m-3157 -34 c0 -8 -4 -12
-9 -9 -5 3 -6 10 -3 15 9 13 12 11 12 -6z m3164 -58 c-13 -13 -26 -3 -16 12 3
6 11 8 17 5 6 -4 6 -10 -1 -17z m-3161 -27 c0 -5 -5 -10 -11 -10 -5 0 -7 5 -4
10 3 6 8 10 11 10 2 0 4 -4 4 -10z m3157 3 c-4 -3 -2 -12 4 -19 10 -13 -6 -32
-18 -20 -4 3 0 6 8 6 12 0 12 2 0 9 -12 8 -8 31 6 31 4 0 3 -3 0 -7z m-2 -163
c3 -5 1 -10 -4 -10 -6 0 -11 5 -11 10 0 6 2 10 4 10 3 0 8 -4 11 -10z m1 -55
c0 -19 -2 -32 -5 -29 -8 8 -10 64 -2 64 4 0 7 -16 7 -35z m-3143 -180 c-3 -9
-8 -14 -10 -11 -3 3 -2 9 2 15 9 16 15 13 8 -4z m3091 -126 c-11 -12 -13 -19
-5 -19 7 0 9 -4 6 -10 -9 -15 -24 -12 -21 4 1 8 7 20 14 28 6 8 8 19 4 23 -4
5 -1 5 6 1 11 -6 10 -12 -4 -27z m-2654 -183 c0 -2 -7 -7 -16 -10 -8 -3 -12
-2 -9 4 6 10 25 14 25 6z m-50 -102 c0 -8 -19 -13 -24 -6 -3 5 1 9 9 9 8 0 15
-2 15 -3z m1290 -24 c5 8 10 10 10 4 0 -5 -7 -19 -16 -30 -8 -10 -13 -14 -10
-7 4 6 2 14 -4 18 -5 3 -10 12 -10 18 0 7 4 6 10 -3 9 -13 11 -13 20 0z m120
4 c0 -8 -19 -13 -24 -6 -3 5 1 9 9 9 8 0 15 -2 15 -3z m27 -20 c-3 -3 -12 -4
-19 -1 -8 3 -5 6 6 6 11 1 17 -2 13 -5z m666 -51 c-4 -10 -9 -11 -19 -2 -18
15 -18 15 5 15 11 0 17 -5 14 -13z m-1790 -68 c-3 -9 -8 -14 -10 -11 -3 3 -2
9 2 15 9 16 15 13 8 -4z m-17 -43 c-10 -10 -29 15 -21 28 6 9 10 8 17 -4 6
-10 7 -20 4 -24z m1688 -37 c-4 -8 -11 -15 -16 -15 -6 0 -5 6 2 15 7 8 14 15
16 15 2 0 1 -7 -2 -15z m-1671 -2 c-7 -2 -13 -13 -13 -24 0 -10 -4 -19 -9 -19
-12 0 -9 33 4 42 6 4 15 7 20 7 6 0 4 -3 -2 -6z m808 -20 c13 -16 12 -17 -3
-4 -17 13 -22 21 -14 21 2 0 10 -8 17 -17z m864 -13 c-3 -5 -12 -10 -18 -10
-7 0 -6 4 3 10 19 12 23 12 15 0z m-1672 -47 c-7 -2 -13 -13 -13 -24 0 -10 -4
-19 -9 -19 -12 0 -9 33 4 42 6 4 15 7 20 7 6 0 4 -3 -2 -6z m813 -28 c1 -8 -4
-19 -12 -26 -10 -8 -14 -8 -14 0 0 6 5 11 11 11 5 0 7 5 4 10 -4 6 -12 7 -18
3 -7 -4 -6 1 2 10 15 18 24 16 27 -8z m404 -30 c11 -13 10 -14 -4 -9 -9 3 -16
10 -16 15 0 13 6 11 20 -6z m-1220 -32 c-8 -3 -22 -11 -30 -17 -13 -10 -13 -9
-1 7 7 9 21 17 30 16 13 0 14 -1 1 -6z m810 -7 c0 -2 -7 -7 -16 -10 -8 -3 -12
-2 -9 4 6 10 25 14 25 6z m3 -30 c4 -10 0 -12 -15 -8 -15 4 -17 7 -6 13 17 11
15 11 21 -5z m837 -16 c0 -5 -5 -10 -11 -10 -5 0 -7 5 -4 10 3 6 8 10 11 10 2
0 4 -4 4 -10z m-1645 -31 c-4 -5 -12 -9 -18 -8 -9 0 -8 2 1 6 6 2 9 10 6 15
-4 7 -2 8 5 4 6 -4 9 -12 6 -17z m1663 -47 c-7 -8 -11 -18 -9 -21 3 -3 -4 -7
-15 -8 -15 -2 -16 -1 -3 5 9 4 15 18 14 34 -2 23 1 26 12 17 11 -10 11 -15 1
-27z m-1028 3 c-11 -14 -7 -19 13 -16 4 0 7 -3 7 -9 0 -14 -16 -12 -29 3 -8
10 -7 17 1 25 17 17 23 15 8 -3z m-644 -80 c-8 -8 -18 -15 -22 -15 -3 0 -1 7
6 15 7 8 17 15 22 15 5 0 3 -7 -6 -15z m307 0 c-3 -9 -8 -14 -10 -11 -3 3 -2
9 2 15 9 16 15 13 8 -4z m1362 -4 c-3 -5 -1 -12 4 -16 12 -7 3 -35 -11 -35 -5
0 -6 5 -3 10 3 6 0 10 -7 11 -9 0 -10 2 -1 5 7 3 9 12 6 20 -3 8 0 14 7 14 6
0 9 -4 5 -9z m-1665 -28 c-8 -3 -22 -11 -30 -17 -13 -10 -13 -9 -1 7 7 9 21
17 30 16 13 0 14 -1 1 -6z m1665 -63 c3 -6 -1 -7 -9 -4 -18 7 -21 14 -7 14 6
0 13 -4 16 -10z m-1662 -7 c-7 -2 -13 -13 -13 -24 0 -10 -4 -19 -9 -19 -12 0
-9 33 4 42 6 4 15 7 20 7 6 0 4 -3 -2 -6z m300 -18 c-7 -21 -12 -19 -10 4 0
11 5 18 9 15 4 -3 5 -11 1 -19z m-300 -62 c-7 -2 -13 -13 -13 -24 0 -10 -4
-19 -9 -19 -12 0 -9 33 4 42 6 4 15 7 20 7 6 0 4 -3 -2 -6z m302 -72 c-3 -6 2
-14 11 -19 10 -6 12 -12 6 -16 -11 -7 -23 16 -28 54 -2 21 -1 22 7 7 6 -9 7
-21 4 -26z m-302 -8 c-7 -2 -13 -13 -13 -24 0 -10 -4 -19 -9 -19 -12 0 -9 33
4 42 6 4 15 7 20 7 6 0 4 -3 -2 -6z m1658 -70 c13 -15 12 -15 -8 -4 -24 12
-29 21 -14 21 5 0 15 -7 22 -17z m-1658 -10 c-7 -2 -13 -13 -13 -24 0 -10 -4
-19 -9 -19 -12 0 -9 33 4 42 6 4 15 7 20 7 6 0 4 -3 -2 -6z m-3 -90 c-8 -3
-22 -11 -30 -17 -13 -10 -13 -9 -1 7 7 9 21 17 30 16 13 0 14 -1 1 -6z m5 -84
c-4 -5 -14 -8 -23 -8 -15 1 -15 2 1 6 9 2 14 9 11 15 -4 7 -2 8 5 4 6 -4 9
-12 6 -17z m339 5 c3 -8 2 -12 -4 -9 -6 3 -10 10 -10 16 0 14 7 11 14 -7z
m1371 6 c-3 -5 -11 -10 -16 -10 -6 0 -7 5 -4 10 3 6 11 10 16 10 6 0 7 -4 4
-10z m-2 -55 c-3 -9 -8 -14 -10 -11 -3 3 -2 9 2 15 9 16 15 13 8 -4z m-493
-160 c11 -13 10 -14 -4 -9 -9 3 -16 10 -16 15 0 13 6 11 20 -6z m-1170 -45 c0
-5 -2 -10 -4 -10 -3 0 -8 5 -11 10 -3 6 -1 10 4 10 6 0 11 -4 11 -10z m1183
-385 c-3 -9 -8 -14 -10 -11 -3 3 -2 9 2 15 9 16 15 13 8 -4z m37 -55 c0 -5 -4
-10 -10 -10 -5 0 -10 5 -10 10 0 6 5 10 10 10 6 0 10 -4 10 -10z m423 -59 c-4
-3 -23 -20 -41 -36 -22 -19 -31 -24 -27 -12 4 9 11 17 17 17 5 0 6 5 2 12 -4
7 -3 8 4 4 6 -3 16 3 22 14 6 11 16 18 21 14 6 -3 7 -9 2 -13z"/>
<path d="M3781 7514 c0 -11 3 -14 6 -6 3 7 2 16 -1 19 -3 4 -6 -2 -5 -13z"/>
<path d="M3948 7513 c7 -3 16 -2 19 1 4 3 -2 6 -13 5 -11 0 -14 -3 -6 -6z"/>
<path d="M4188 7513 c7 -3 16 -2 19 1 4 3 -2 6 -13 5 -11 0 -14 -3 -6 -6z"/>
<path d="M4428 7513 c7 -3 16 -2 19 1 4 3 -2 6 -13 5 -11 0 -14 -3 -6 -6z"/>
<path d="M4541 7513 c-1 -17 16 -25 25 -12 4 7 3 9 -4 5 -5 -3 -13 0 -15 6 -4
9 -6 10 -6 1z"/>
<path d="M4821 7434 c0 -11 3 -14 6 -6 3 7 2 16 -1 19 -3 4 -6 -2 -5 -13z"/>
<path d="M4907 7363 c3 -7 9 -13 13 -13 4 0 10 6 13 13 3 7 -3 13 -13 13 -10
0 -16 -6 -13 -13z"/>
<path d="M4995 7331 c-3 -5 -2 -12 3 -15 5 -3 9 1 9 9 0 17 -3 19 -12 6z"/>
<path d="M5054 7312 c3 -5 0 -13 -6 -15 -9 -4 -10 -6 -1 -6 17 -1 25 16 12 25
-7 4 -9 3 -5 -4z"/>
<path d="M2747 7286 c-3 -8 -2 -18 3 -21 13 -8 20 9 11 24 -6 10 -10 9 -14 -3z"/>
<path d="M2778 7293 c6 -2 10 -9 7 -14 -4 -5 1 -6 10 -2 13 5 14 7 3 14 -7 5
-17 8 -23 8 -5 0 -4 -3 3 -6z"/>
<path d="M2647 7239 c7 -7 15 -10 18 -7 3 3 -2 9 -12 12 -14 6 -15 5 -6 -5z"/>
<path d="M2559 7195 c-1 -3 -2 -11 -3 -17 0 -7 -9 -13 -18 -13 -24 0 -31 -11
-8 -12 20 -2 33 11 36 35 2 11 -5 18 -7 7z"/>
<path d="M5274 7118 c17 -20 37 -37 45 -37 10 -1 9 3 -5 13 -10 8 -19 20 -19
28 -1 7 -6 12 -13 11 -16 -4 -16 14 1 20 6 2 0 4 -14 3 l-27 -1 32 -37z"/>
<path d="M2396 7062 c-3 -5 1 -9 9 -9 8 0 12 4 9 9 -3 4 -7 8 -9 8 -2 0 -6 -4
-9 -8z"/>
<path d="M2271 6986 c-8 -10 -9 -16 -1 -21 5 -3 10 -5 11 -3 4 18 7 38 4 38
-1 0 -8 -6 -14 -14z"/>
<path d="M2215 6951 c-3 -5 -2 -12 3 -15 5 -3 9 1 9 9 0 17 -3 19 -12 6z"/>
<path d="M2160 6916 c0 -2 8 -10 18 -17 15 -13 16 -12 3 4 -13 16 -21 21 -21
13z"/>
<path d="M5460 6841 c0 -10 19 -25 25 -20 1 2 -3 10 -11 17 -8 7 -14 8 -14 3z"/>
<path d="M1895 6650 c-3 -5 -1 -10 4 -10 6 0 11 5 11 10 0 6 -2 10 -4 10 -3 0
-8 -4 -11 -10z"/>
<path d="M5761 6553 c-1 -17 16 -25 25 -12 4 7 3 9 -4 5 -5 -3 -13 0 -15 6 -4
9 -6 10 -6 1z"/>
<path d="M1777 6480 c-3 -11 -2 -20 3 -20 12 0 21 28 11 35 -5 2 -11 -4 -14
-15z"/>
<path d="M1750 6446 c0 -2 7 -7 16 -10 8 -3 12 -2 9 4 -6 10 -25 14 -25 6z"/>
<path d="M5950 6351 c0 -10 19 -25 25 -20 1 2 -3 10 -11 17 -8 7 -14 8 -14 3z"/>
<path d="M1624 6233 c0 -9 -7 -17 -17 -19 -26 -4 -31 -10 -13 -17 7 -3 24 5
35 17 18 19 19 25 8 29 -9 3 -14 -1 -13 -10z"/>
<path d="M6115 5770 c-3 -5 -1 -10 4 -10 6 0 11 5 11 10 0 6 -2 10 -4 10 -3 0
-8 -4 -11 -10z"/>
<path d="M1410 5590 c0 -5 5 -10 10 -10 6 0 10 5 10 10 0 6 -4 10 -10 10 -5 0
-10 -4 -10 -10z"/>
<path d="M1407 5541 c-3 -13 0 -18 7 -15 7 3 13 11 13 19 0 22 -14 18 -20 -4z"/>
<path d="M6115 5530 c-3 -5 -1 -10 4 -10 6 0 11 5 11 10 0 6 -2 10 -4 10 -3 0
-8 -4 -11 -10z"/>
<path d="M6121 5304 c0 -11 3 -14 6 -6 3 7 2 16 -1 19 -3 4 -6 -2 -5 -13z"/>
<path d="M6116 4952 c-3 -5 1 -9 9 -9 8 0 12 4 9 9 -3 4 -7 8 -9 8 -2 0 -6 -4
-9 -8z"/>
<path d="M1432 4924 c-7 -8 -8 -14 -3 -14 10 0 25 19 20 25 -2 1 -10 -3 -17
-11z"/>
<path d="M6050 4549 c0 -5 5 -7 10 -4 6 3 10 8 10 11 0 2 -4 4 -10 4 -5 0 -10
-5 -10 -11z"/>
<path d="M1467 4514 c3 -7 9 -14 14 -14 14 0 10 17 -5 23 -10 4 -13 1 -9 -9z"/>
<path d="M1470 4465 c0 -2 6 -8 13 -14 10 -8 14 -7 14 2 0 8 -6 14 -14 14 -7
0 -13 -1 -13 -2z"/>
<path d="M5985 4271 c1 -8 7 -16 14 -17 7 -2 7 0 1 3 -7 3 -8 9 -1 17 8 9 7
13 -3 13 -8 0 -13 -7 -11 -16z"/>
<path d="M5986 4224 c-5 -13 -4 -14 7 -6 8 7 18 8 22 4 5 -4 5 -1 1 6 -10 17
-23 15 -30 -4z"/>
<path d="M1567 4203 c-10 -9 -9 -23 1 -23 5 0 9 7 9 15 0 17 -1 18 -10 8z"/>
<path d="M1569 4151 c6 -10 7 -22 3 -26 -4 -5 -1 -5 6 -1 9 5 9 12 2 27 -6 10
-13 19 -16 19 -2 0 0 -8 5 -19z"/>
<path d="M5950 4150 c-13 -8 -12 -10 3 -10 9 0 17 5 17 10 0 12 -1 12 -20 0z"/>
<path d="M5943 4115 c0 -8 4 -15 9 -15 4 0 8 4 8 9 0 6 -4 12 -8 15 -5 3 -9
-1 -9 -9z"/>
<path d="M5905 4000 c-3 -6 1 -7 9 -4 18 7 21 14 7 14 -6 0 -13 -4 -16 -10z"/>
<path d="M5865 3961 c-3 -5 -1 -12 5 -16 6 -4 7 -11 4 -17 -4 -6 -2 -8 4 -5 5
4 8 16 5 27 -6 22 -9 24 -18 11z"/>
<path d="M1660 3856 c0 -2 7 -7 16 -10 8 -3 12 -2 9 4 -6 10 -25 14 -25 6z"/>
<path d="M5740 3746 c0 -2 7 -7 16 -10 8 -3 12 -2 9 4 -6 10 -25 14 -25 6z"/>
<path d="M5739 3678 c0 -2 -2 -13 -3 -25 -2 -18 0 -20 16 -12 10 5 18 12 18
15 0 3 -4 3 -9 -1 -5 -3 -12 -1 -15 4 -4 5 2 12 11 14 17 4 17 5 1 6 -10 0
-18 0 -19 -1z"/>
<path d="M5745 3570 c-3 -6 1 -7 9 -4 18 7 21 14 7 14 -6 0 -13 -4 -16 -10z"/>
<path d="M5746 3478 c3 -5 10 -6 15 -3 13 9 11 12 -6 12 -8 0 -12 -4 -9 -9z"/>
<path d="M5735 3431 c-3 -5 1 -16 10 -24 13 -13 13 -16 -1 -27 -8 -7 -12 -15
-9 -18 3 -3 12 3 19 14 13 17 12 21 -2 38 -16 18 -16 19 1 13 11 -4 16 -3 12
3 -8 13 -22 13 -30 1z"/>
<path d="M5740 3346 c0 -2 7 -7 16 -10 8 -3 12 -2 9 4 -6 10 -25 14 -25 6z"/>
<path d="M5741 3301 c-8 -5 -9 -11 -3 -15 5 -3 12 1 16 9 6 17 6 18 -13 6z"/>
<path d="M2096 3269 c3 -5 12 -9 19 -9 9 0 12 -6 9 -17 -5 -15 -4 -15 4 -3 13
17 8 26 -18 33 -11 3 -18 1 -14 -4z"/>
<path d="M2130 3210 c0 -5 5 -10 11 -10 5 0 7 5 4 10 -3 6 -8 10 -11 10 -2 0
-4 -4 -4 -10z"/>
<path d="M2256 3021 c-4 -5 -2 -12 4 -16 6 -4 7 -11 4 -17 -4 -6 -2 -8 4 -5
10 7 11 32 0 42 -3 4 -9 2 -12 -4z"/>
<path d="M2281 2868 c-7 -11 -8 -17 -2 -14 5 4 12 2 16 -3 3 -5 -3 -14 -12
-20 -10 -6 -13 -11 -7 -11 17 0 32 22 28 43 -4 27 -8 28 -23 5z"/>
<path d="M5530 2709 c0 -5 5 -7 10 -4 6 3 10 8 10 11 0 2 -4 4 -10 4 -5 0 -10
-5 -10 -11z"/>
<path d="M2286 2677 c3 -10 9 -15 12 -12 3 3 0 11 -7 18 -10 9 -11 8 -5 -6z"/>
<path d="M5513 2615 c0 -8 4 -12 9 -9 5 3 6 10 3 15 -9 13 -12 11 -12 -6z"/>
<path d="M5510 2569 c0 -5 5 -7 10 -4 6 3 10 8 10 11 0 2 -4 4 -10 4 -5 0 -10
-5 -10 -11z"/>
<path d="M2286 2517 c3 -10 9 -15 12 -12 3 3 0 11 -7 18 -10 9 -11 8 -5 -6z"/>
<path d="M5470 2416 c0 -2 7 -7 16 -10 8 -3 12 -2 9 4 -6 10 -25 14 -25 6z"/>
<path d="M2300 2310 c-9 -6 -10 -10 -3 -10 6 0 15 5 18 10 8 12 4 12 -15 0z"/>
<path d="M2905 2190 c-4 -6 -3 -10 2 -9 20 3 27 -2 13 -11 -12 -7 -10 -9 7 -7
21 1 21 2 6 19 -19 21 -20 21 -28 8z"/>
<path d="M5232 2154 c-12 -9 -12 -13 -2 -19 9 -5 11 -4 6 3 -7 12 3 15 41 13
11 -1 23 1 26 6 8 12 -54 10 -71 -3z"/>
<path d="M2783 2088 c-11 -18 -13 -38 -3 -38 4 0 10 11 12 25 6 28 3 31 -9 13z"/>
<path d="M2960 2090 c-9 -6 -10 -10 -3 -10 6 0 15 5 18 10 8 12 4 12 -15 0z"/>
<path d="M2350 2086 c0 -2 8 -10 18 -17 15 -13 16 -12 3 4 -13 16 -21 21 -21
13z"/>
<path d="M5166 2071 c-3 -5 1 -14 9 -21 10 -9 15 -9 15 -1 0 6 -6 11 -12 11
-9 0 -8 4 2 10 9 6 10 10 3 10 -6 0 -14 -4 -17 -9z"/>
<path d="M2946 2028 c3 -4 9 -8 15 -8 5 0 9 4 9 8 0 5 -7 9 -15 9 -8 0 -12 -4
-9 -9z"/>
<path d="M5160 2030 c0 -5 5 -10 11 -10 5 0 7 5 4 10 -3 6 -8 10 -11 10 -2 0
-4 -4 -4 -10z"/>
<path d="M5153 1993 c0 -10 4 -10 16 -1 9 7 18 13 20 15 2 1 -5 1 -16 0 -11 0
-20 -7 -20 -14z"/>
<path d="M2656 1953 c-6 -14 -5 -15 5 -6 7 7 10 15 7 18 -3 3 -9 -2 -12 -12z"/>
<path d="M2974 1888 c-4 -6 -3 -8 4 -4 6 3 15 -2 21 -11 12 -20 14 -13 5 11
-7 19 -20 21 -30 4z"/>
<path d="M4867 1879 c7 -7 15 -10 18 -7 3 3 -2 9 -12 12 -14 6 -15 5 -6 -5z"/>
<path d="M4227 1813 c3 -7 8 -13 12 -13 4 0 8 6 8 13 0 8 -6 14 -13 14 -7 0
-10 -6 -7 -14z"/>
<path d="M4737 1795 c3 -8 9 -12 14 -9 12 7 11 11 -5 17 -10 4 -13 1 -9 -8z"/>
<path d="M4995 1789 c-4 -6 -4 -13 -1 -16 3 -4 6 -1 6 6 0 7 5 9 12 5 7 -4 8
-3 4 4 -9 15 -13 15 -21 1z"/>
<path d="M4221 1775 c0 -5 3 -16 8 -23 7 -11 9 -10 14 3 4 9 3 14 -2 10 -5 -3
-12 1 -14 7 -3 7 -6 9 -6 3z"/>
<path d="M4230 1719 c0 -5 5 -7 10 -4 6 3 10 8 10 11 0 2 -4 4 -10 4 -5 0 -10
-5 -10 -11z"/>
<path d="M4221 1615 c0 -5 3 -16 8 -23 7 -11 9 -10 14 3 4 9 3 14 -2 10 -5 -3
-12 1 -14 7 -3 7 -6 9 -6 3z"/>
<path d="M4227 1536 c-3 -8 -3 -17 0 -20 9 -9 34 15 27 25 -8 13 -21 11 -27
-5z"/>
<path d="M3825 1520 c-3 -5 -1 -10 4 -10 6 0 11 5 11 10 0 6 -2 10 -4 10 -3 0
-8 -4 -11 -10z"/>
<path d="M3383 1493 c0 -7 4 -13 8 -13 4 0 9 6 12 13 3 8 0 14 -7 14 -7 0 -13
-6 -13 -14z"/>
<path d="M3826 1492 c-3 -5 1 -9 9 -9 8 0 12 4 9 9 -3 4 -7 8 -9 8 -2 0 -6 -4
-9 -8z"/>
<path d="M4220 1489 c0 -5 5 -7 10 -4 6 3 10 8 10 11 0 2 -4 4 -10 4 -5 0 -10
-5 -10 -11z"/>
<path d="M2990 1472 c0 -5 7 -15 15 -22 8 -7 15 -9 15 -6 0 4 -7 14 -15 22 -8
9 -15 11 -15 6z"/>
<path d="M3405 1470 c-3 -6 1 -7 9 -4 18 7 21 14 7 14 -6 0 -13 -4 -16 -10z"/>
<path d="M4230 1470 c-9 -6 -10 -10 -3 -10 6 0 15 5 18 10 8 12 4 12 -15 0z"/>
<path d="M3816 1423 c-6 -14 -5 -15 5 -6 7 7 10 15 7 18 -3 3 -9 -2 -12 -12z"/>
<path d="M3835 1409 c-4 -6 -5 -12 -2 -15 2 -3 7 2 10 11 7 17 1 20 -8 4z"/>
<path d="M4220 1413 c0 -15 18 -35 23 -27 3 5 -1 15 -9 22 -8 7 -14 9 -14 5z"/>
<path d="M4230 1359 c0 -5 5 -7 10 -4 6 3 10 8 10 11 0 2 -4 4 -10 4 -5 0 -10
-5 -10 -11z"/>
<path d="M4230 1329 c0 -5 5 -7 10 -4 6 3 10 8 10 11 0 2 -4 4 -10 4 -5 0 -10
-5 -10 -11z"/>
<path d="M4229 1291 c6 -10 7 -21 4 -25 -3 -3 -1 -6 5 -6 15 0 11 38 -5 45
-10 3 -11 0 -4 -14z"/>
<path d="M3360 1256 c0 -2 7 -6 15 -10 8 -3 15 -1 15 4 0 6 -7 10 -15 10 -8 0
-15 -2 -15 -4z"/>
<path d="M4232 1186 c7 -8 17 -12 22 -9 4 3 2 9 -5 14 -22 13 -31 11 -17 -5z"/>
<path d="M4715 1190 c-3 -6 1 -7 9 -4 18 7 21 14 7 14 -6 0 -13 -4 -16 -10z"/>
<path d="M3373 1160 c5 -29 13 -33 13 -5 0 14 -4 25 -8 25 -4 0 -7 -9 -5 -20z"/>
<path d="M4220 1172 c0 -10 27 -42 36 -42 8 0 4 7 -16 30 -11 13 -20 18 -20
12z"/>
<path d="M4229 1051 c6 -10 7 -21 4 -25 -3 -3 -1 -6 5 -6 15 0 11 38 -5 45
-10 3 -11 0 -4 -14z"/>
<path d="M3396 1025 c-11 -8 -15 -15 -9 -15 6 0 16 7 23 15 16 19 11 19 -14 0z"/>
<path d="M4716 1003 c-6 -14 -5 -15 5 -6 7 7 10 15 7 18 -3 3 -9 -2 -12 -12z"/>
<path d="M4223 993 c0 -7 4 -13 8 -13 4 0 9 6 12 13 3 8 0 14 -7 14 -7 0 -13
-6 -13 -14z"/>
<path d="M3385 990 c4 -6 11 -8 16 -5 14 9 11 15 -7 15 -8 0 -12 -5 -9 -10z"/>
<path d="M4220 935 c0 -5 5 -17 10 -25 5 -8 10 -10 10 -5 0 6 -5 17 -10 25 -5
8 -10 11 -10 5z"/>
<path d="M4230 879 c0 -5 5 -7 10 -4 6 3 10 8 10 11 0 2 -4 4 -10 4 -5 0 -10
-5 -10 -11z"/>
<path d="M4230 849 c0 -5 5 -7 10 -4 6 3 10 8 10 11 0 2 -4 4 -10 4 -5 0 -10
-5 -10 -11z"/>
<path d="M2990 831 c0 -10 19 -25 25 -20 1 2 -3 10 -11 17 -8 7 -14 8 -14 3z"/>
<path d="M4221 815 c0 -5 3 -16 8 -23 7 -11 9 -10 14 3 4 9 3 14 -2 10 -5 -3
-12 1 -14 7 -3 7 -6 9 -6 3z"/>
<path d="M4230 759 c0 -5 5 -7 10 -4 6 3 10 8 10 11 0 2 -4 4 -10 4 -5 0 -10
-5 -10 -11z"/>
<path d="M4221 655 c0 -5 3 -16 8 -23 7 -11 9 -10 14 3 4 9 3 14 -2 10 -5 -3
-12 1 -14 7 -3 7 -6 9 -6 3z"/>
<path d="M3350 629 c0 -5 5 -7 10 -4 6 3 10 8 10 11 0 2 -4 4 -10 4 -5 0 -10
-5 -10 -11z"/>
<path d="M4227 576 c-3 -8 -3 -17 0 -20 9 -9 34 15 27 25 -8 13 -21 11 -27 -5z"/>
<path d="M3310 565 c-11 -13 -10 -14 4 -9 9 3 16 10 16 15 0 13 -6 11 -20 -6z"/>
<path d="M3070 560 c0 -5 5 -10 11 -10 5 0 7 -5 3 -12 -4 -7 -3 -8 5 -4 9 6 9
11 0 22 -14 17 -19 18 -19 4z"/>
<path d="M4220 529 c0 -5 5 -7 10 -4 6 3 10 8 10 11 0 2 -4 4 -10 4 -5 0 -10
-5 -10 -11z"/>
<path d="M3245 522 c-10 -7 -18 -32 -10 -32 2 0 9 9 15 20 12 22 11 24 -5 12z"/>
<path d="M4230 505 c-11 -13 -10 -14 4 -9 9 3 16 10 16 15 0 13 -6 11 -20 -6z"/>
<path d="M4765 490 c-3 -5 -2 -10 4 -10 5 0 13 5 16 10 3 6 2 10 -4 10 -5 0
-13 -4 -16 -10z"/>
<path d="M4765 461 c-6 -11 13 -26 22 -17 4 3 0 6 -8 6 -11 0 -11 2 1 10 9 6
10 10 3 10 -6 0 -14 -4 -18 -9z"/>
<path d="M4236 324 c-12 -11 -13 -20 -6 -33 5 -10 6 -21 3 -25 -3 -3 -1 -6 5
-6 14 0 15 10 2 30 -6 10 -4 20 7 32 20 22 10 24 -11 2z"/>
</g>
</svg>
